<?xml version="1.0" encoding="UTF-8" standalone="no"?>
<svg
   xmlns:dc="http://purl.org/dc/elements/1.1/"
   xmlns:cc="http://creativecommons.org/ns#"
   xmlns:rdf="http://www.w3.org/1999/02/22-rdf-syntax-ns#"
   xmlns:svg="http://www.w3.org/2000/svg"
   xmlns="http://www.w3.org/2000/svg"
   xmlns:xlink="http://www.w3.org/1999/xlink"
   xmlns:sodipodi="http://sodipodi.sourceforge.net/DTD/sodipodi-0.dtd"
   xmlns:inkscape="http://www.inkscape.org/namespaces/inkscape"
   sodipodi:docname="verbeek-and-older-codenames.svg"
   inkscape:version="1.0.1 (1.0.1+r73)"
   id="svg8"
   version="1.1"
   viewBox="0 0 210 297"
   height="297mm"
   width="210mm">
  <defs
     id="defs2">
    <linearGradient
       id="linearGradient1528"
       inkscape:collect="always">
      <stop
         id="stop1524"
         offset="0"
         style="stop-color:#ff0000;stop-opacity:1;" />
      <stop
         id="stop1526"
         offset="1"
         style="stop-color:#ff0000;stop-opacity:0;" />
    </linearGradient>
    <linearGradient
       y2="143.00375"
       x2="121.59902"
       y1="147.33583"
       x1="162.57376"
       gradientUnits="userSpaceOnUse"
       id="linearGradient1532"
       xlink:href="#linearGradient1528"
       inkscape:collect="always" />
    <clipPath
       id="clipPath1546"
       clipPathUnits="userSpaceOnUse">
      <rect
         style="fill:#000000;fill-opacity:0.724747;fill-rule:nonzero;stroke-width:0.0368879"
         id="rect1548"
         width="254.92723"
         height="254.92723"
         x="-131.53716"
         y="385.41666" />
    </clipPath>
    <linearGradient
       y2="143.00375"
       x2="121.59902"
       y1="147.33583"
       x1="162.57376"
       gradientUnits="userSpaceOnUse"
       id="linearGradient1582"
       xlink:href="#linearGradient1528"
       inkscape:collect="always" />
    <linearGradient
       y2="143.00375"
       x2="121.59902"
       y1="147.33583"
       x1="162.57376"
       gradientUnits="userSpaceOnUse"
       id="linearGradient1584"
       xlink:href="#linearGradient1528"
       inkscape:collect="always" />
    <clipPath
       id="clipPath1604"
       clipPathUnits="userSpaceOnUse">
      <rect
         y="402.31427"
         x="217.95518"
         height="242.38458"
         width="415.71558"
         id="rect1606"
         style="fill:#000000;fill-opacity:0.724747;fill-rule:nonzero;stroke-width:0.0459325" />
    </clipPath>
    <clipPath
       id="clipPath1652"
       clipPathUnits="userSpaceOnUse">
      <rect
         y="402.31418"
         x="310.49133"
         height="242.38455"
         width="323.17947"
         id="rect1654"
         style="fill:#000000;fill-opacity:0.724747;fill-rule:nonzero;stroke-width:0.0404988"
         inkscape:export-filename="/home/herpiko/image1516.png"
         inkscape:export-xdpi="314.38"
         inkscape:export-ydpi="314.38" />
    </clipPath>
  </defs>
  <sodipodi:namedview
     inkscape:window-maximized="1"
     inkscape:window-y="27"
     inkscape:window-x="40"
     inkscape:window-height="1016"
     inkscape:window-width="1880"
     inkscape:guide-bbox="true"
     showguides="true"
     showgrid="false"
     inkscape:document-rotation="0"
     inkscape:current-layer="layer1"
     inkscape:document-units="mm"
     inkscape:cy="52.714957"
     inkscape:cx="1001.8627"
     inkscape:zoom="0.35"
     inkscape:pageshadow="2"
     inkscape:pageopacity="0.0"
     borderopacity="1.0"
     bordercolor="#666666"
     pagecolor="#ffffff"
     id="base" />
  <metadata
     id="metadata5">
    <rdf:RDF>
      <cc:Work
         rdf:about="">
        <dc:format>image/svg+xml</dc:format>
        <dc:type
           rdf:resource="http://purl.org/dc/dcmitype/StillImage" />
        <dc:title></dc:title>
      </cc:Work>
    </rdf:RDF>
  </metadata>
  <g
     id="layer1"
     inkscape:groupmode="layer"
     inkscape:label="Layer 1">
    <rect
       inkscape:export-ydpi="314.38"
       inkscape:export-xdpi="314.38"
       inkscape:export-filename="/home/herpiko/image1516.png"
       style="opacity:1;fill:#000000;fill-opacity:1;fill-rule:nonzero;stroke-width:0.0352031"
       id="rect1588"
       width="290.49963"
       height="203.74222"
       x="4.1456251"
       y="-207.06224"
       transform="rotate(90)" />
    <g
       id="g1580"
       transform="matrix(0.98025593,0,0,0.98025593,113.62185,-360.81717)"
       inkscape:export-filename="/home/herpiko/image1516.png"
       inkscape:export-xdpi="314.38"
       inkscape:export-ydpi="314.38">
      <g
         transform="matrix(1.4999459,0,0,1.4852427,-175.37785,287.01577)"
         style="font-style:normal;font-weight:normal;font-size:198.515px;line-height:1.25;font-family:sans-serif;letter-spacing:0px;word-spacing:0px;fill:url(#linearGradient1584);fill-opacity:1;stroke:none;stroke-width:4.96289"
         id="g1570"
         aria-label="V">
        <path
           sodipodi:nodetypes="ccccc"
           id="path1568"
           style="font-style:normal;font-variant:normal;font-weight:normal;font-stretch:normal;font-family:Keraleeyam;-inkscape-font-specification:Keraleeyam;text-align:center;text-anchor:middle;fill:url(#linearGradient1582);fill-opacity:1;stroke-width:4.96289"
           d="M 164.98673,91.032344 129.02527,215.49194 H 106.05258 L 141.26232,91.032344 Z" />
      </g>
      <path
         d="m -74.780639,422.28273 v 9.95252 h 2.805928 c 1.395211,-0.005 2.358946,-0.3307 2.891194,-0.97664 0.165355,-0.19636 0.294542,-0.43665 0.387557,-0.72086 0.09301,-0.28939 0.139526,-0.63818 0.139526,-1.04641 0,-0.41341 -0.06202,-0.77512 -0.18603,-1.08517 -0.335883,-0.85779 -0.943064,-1.33578 -1.821529,-1.43398 0.397892,-0.0619 0.723444,-0.29711 0.976649,-0.70535 0.258373,-0.40823 0.387559,-0.94565 0.387559,-1.61224 0,-0.3824 -0.07493,-0.73379 -0.224781,-1.05417 -0.413399,-0.87846 -1.359052,-1.3177 -2.836936,-1.3177 z m 28.183312,0 v 9.95252 h 1.542494 v -9.95252 z m 7.999214,0 v 9.95252 h 1.542493 v -9.95252 z m -29.454495,0.48832 v 1.51149 h 1.480476 v -1.51149 z m -5.224302,1.04642 h 0.968898 c 0.54258,0 0.948232,0.0827 1.216939,0.24803 0.273873,0.16536 0.410811,0.49349 0.410811,0.98441 0,0.2687 -0.04392,0.4909 -0.131769,0.66661 -0.08786,0.17051 -0.237704,0.32812 -0.449569,0.47281 -0.206695,0.13949 -0.560667,0.20929 -1.06191,0.20929 h -0.953399 z m 16.386008,1.19368 c -0.413397,0 -0.800956,0.11881 -1.162679,0.35655 -0.361721,0.23771 -0.599426,0.571 -0.71311,0.99991 l 0.01552,-1.11617 h -1.433969 v 6.98381 h 1.449471 v -4.20889 c 0,-0.56325 0.129184,-0.97664 0.387557,-1.24019 0.263539,-0.2687 0.627852,-0.40306 1.09292,-0.40306 0.914637,0 1.371958,0.54774 1.371958,1.64325 v 4.20889 h 1.44172 v -4.31741 c 0,-1.93778 -0.816462,-2.90669 -2.449374,-2.90669 z m 6.061425,0.0154 c -0.868129,0 -1.560572,0.23513 -2.077317,0.70537 -0.516743,0.46507 -0.775119,1.08774 -0.775119,1.86803 0,0.77513 0.312635,1.3978 0.937896,1.86804 -0.26871,0.20152 -0.477989,0.41597 -0.62785,0.64335 -0.144684,0.2222 -0.21703,0.50383 -0.21703,0.84488 0,0.50124 0.227369,0.90429 0.682103,1.20919 -0.723441,0.46505 -1.085166,1.04123 -1.085166,1.7285 0,1.19885 0.961155,1.79828 2.883443,1.79828 1.09033,0 1.994637,-0.23254 2.712911,-0.69761 0.718274,-0.4599 1.077418,-1.06966 1.077418,-1.82928 0,-0.62527 -0.198952,-1.11359 -0.596845,-1.46496 -0.397892,-0.35657 -1.015405,-0.54001 -1.852523,-0.55035 -0.831964,-0.0154 -1.413309,-0.0232 -1.744025,-0.0232 -0.32555,-0.005 -0.576171,-0.0723 -0.751864,-0.20153 -0.093,-0.0672 -0.139526,-0.21188 -0.139526,-0.43407 0,-0.22737 0.155026,-0.4444 0.465073,-0.6511 0.413395,0.093 0.782867,0.1395 1.108416,0.1395 0.857799,0 1.537329,-0.22738 2.038569,-0.68212 0.506409,-0.4599 0.759608,-1.02573 0.759608,-1.69751 0,-0.29971 -0.02585,-0.53225 -0.07755,-0.6976 0.434069,-0.0362 0.788043,-0.13695 1.061907,-0.30231 v -1.52697 c -0.609756,0.3979 -1.170425,0.61493 -1.682005,0.6511 -0.527076,-0.46507 -1.227271,-0.69762 -2.100571,-0.69762 z m -13.029742,0.0311 c -0.578754,0 -1.180765,0.11372 -1.806027,0.34105 v 1.45722 c 0.738948,-0.28937 1.338373,-0.43406 1.798276,-0.43406 1.13167,0 1.697512,0.38756 1.697512,1.16268 v 0.26354 c -0.253205,-0.0362 -0.560674,-0.0543 -0.922391,-0.0543 -2.061811,-0.005 -3.092724,0.75704 -3.092724,2.28659 0,0.46507 0.06719,0.84229 0.201529,1.13167 0.351388,0.78545 1.067082,1.17818 2.14708,1.17818 0.795786,0 1.351292,-0.24028 1.666506,-0.72085 l 0.031,0.62009 h 1.480478 v -4.39493 c 0,-1.01798 -0.260962,-1.74402 -0.782872,-2.17808 -0.516745,-0.43924 -1.322871,-0.65886 -2.41837,-0.65886 z m 21.548286,0 c -0.578749,0 -1.180752,0.11372 -1.806019,0.34105 v 1.45722 c 0.738954,-0.28937 1.338371,-0.43406 1.798292,-0.43406 1.131663,0 1.697502,0.38756 1.697502,1.16268 v 0.26354 c -0.253211,-0.0362 -0.560668,-0.0543 -0.922397,-0.0543 -2.061804,-0.005 -3.092719,0.75704 -3.092719,2.28659 0,0.46507 0.06719,0.84229 0.201525,1.13167 0.351375,0.78545 1.067078,1.17818 2.147069,1.17818 0.795798,0 1.351309,-0.24028 1.666522,-0.72085 l 0.0311,0.62009 h 1.480463 v -4.39493 c 0,-1.01798 -0.260942,-1.74402 -0.782853,-2.17808 -0.516745,-0.43924 -1.322876,-0.65886 -2.418376,-0.65886 z m 7.999226,0 c -0.578762,0 -1.180778,0.11372 -1.806034,0.34105 v 1.45722 c 0.738963,-0.28937 1.338381,-0.43406 1.798279,-0.43406 1.131686,0 1.697523,0.38756 1.697523,1.16268 v 0.26354 c -0.253214,-0.0362 -0.560691,-0.0543 -0.922405,-0.0543 -2.061798,-0.005 -3.092715,0.75704 -3.092715,2.28659 0,0.46507 0.06724,0.84229 0.201538,1.13167 0.351373,0.78545 1.067071,1.17818 2.147055,1.17818 0.795799,0 1.351308,-0.24028 1.666527,-0.72085 l 0.03107,0.62009 h 1.480487 v -4.39493 c 0,-1.01798 -0.26097,-1.74402 -0.782872,-2.17808 -0.516758,-0.43924 -1.322884,-0.65886 -2.418379,-0.65886 z m -33.740901,0.15502 v 7.02258 h 1.480476 v -7.02258 z m 17.20763,1.01541 c 0.873295,0 1.309953,0.42631 1.309953,1.27893 0,0.40307 -0.09815,0.72087 -0.294545,0.9534 -0.196365,0.22738 -0.5245,0.34106 -0.984402,0.34106 -0.888802,0 -1.333205,-0.42891 -1.333205,-1.2867 0,-0.85779 0.434069,-1.28669 1.302199,-1.28669 z m -22.431932,1.682 h 1.418467 c 0.537417,0 0.953399,0.1111 1.247941,0.3333 0.294545,0.21702 0.441819,0.59943 0.441819,1.14717 0,0.54258 -0.196366,0.91724 -0.589091,1.12393 -0.201528,0.10328 -0.607176,0.15502 -1.216937,0.15502 h -1.302199 z m 10.425347,1.00765 c 0.258371,0 0.485743,0.0157 0.682105,0.0465 v 1.42622 c -0.206702,0.41857 -0.643351,0.62783 -1.309954,0.62783 -0.217031,0.005 -0.405643,-0.007 -0.565836,-0.0387 -0.465068,-0.0827 -0.697606,-0.38238 -0.697606,-0.89913 0,-0.77511 0.630435,-1.16268 1.891291,-1.16268 z m 21.548293,0 c 0.258369,0 0.485744,0.0157 0.682112,0.0465 v 1.42622 c -0.206695,0.41857 -0.643363,0.62783 -1.30995,0.62783 -0.217048,0.005 -0.405648,-0.007 -0.565839,-0.0387 -0.465076,-0.0827 -0.697607,-0.38238 -0.697607,-0.89913 0,-0.77511 0.630437,-1.16268 1.891284,-1.16268 z m 7.999215,0 c 0.258385,0 0.485749,0.0157 0.682116,0.0465 v 1.42622 c -0.206708,0.41857 -0.643364,0.62783 -1.30997,0.62783 -0.217024,0.005 -0.405648,-0.007 -0.565825,-0.0387 -0.465068,-0.0827 -0.697602,-0.38238 -0.697602,-0.89913 0,-0.77511 0.630427,-1.16268 1.891281,-1.16268 z m -18.083508,3.56555 1.441725,0.0311 c 0.413398,0.01 0.695018,0.0879 0.844869,0.23253 0.149864,0.14474 0.22479,0.34623 0.22479,0.6046 0,0.12404 -0.04914,0.25321 -0.147266,0.38756 -0.310042,0.42376 -1.010242,0.63305 -2.100569,0.62785 -0.418564,0 -0.767368,-0.0723 -1.04641,-0.21704 -0.273872,-0.13949 -0.410814,-0.36429 -0.410814,-0.67436 0.0051,-0.14474 0.02325,-0.27645 0.05426,-0.3953 0.12401,-0.41338 0.503831,-0.61234 1.139423,-0.59685 z m 6.056778,5.58861 v 3.82136 c -0.310056,-0.66145 -0.919812,-0.99215 -1.829285,-0.99215 -0.423728,0 -0.811281,0.0723 -1.162671,0.21702 -1.116207,0.45991 -1.671706,1.5916 -1.666507,3.39502 0,1.21952 0.245456,2.15999 0.736369,2.82143 0.496069,0.66146 1.17818,0.99217 2.046305,0.99217 0.873296,0 1.508904,-0.32554 1.906796,-0.97666 l 0.06974,0.81388 h 1.371964 v -10.09207 z m -24.478242,0.0853 v 9.95256 h 1.542481 v -3.48028 l 0.581343,-0.82162 2.798178,4.3019 h 1.782774 l -3.410522,-5.5266 3.170233,-4.42596 h -1.767272 l -3.154734,4.20892 v -4.20892 z m 16.87433,2.72844 c -0.413397,0 -0.800956,0.11881 -1.162679,0.35656 -0.361722,0.23771 -0.599427,0.57101 -0.71311,0.9999 l 0.01552,-1.11618 h -1.433968 v 6.98384 h 1.449471 v -4.2089 c 0,-0.56324 0.129198,-0.97666 0.387558,-1.24019 0.263539,-0.26871 0.627849,-0.40306 1.09292,-0.40306 0.914636,0 1.371958,0.54775 1.371958,1.64325 v 4.2089 h 1.441718 v -4.31741 c 0,-1.9378 -0.81646,-2.90671 -2.449372,-2.90671 z m -6.766784,0.0157 c -0.501242,0 -0.937897,0.0879 -1.309954,0.26354 -1.111,0.53741 -1.6665,1.67167 -1.6665,3.40276 0,1.11617 0.253204,2.00755 0.759615,2.67416 0.50641,0.6666 1.247945,0.9999 2.224591,0.9999 0.976646,0 1.713013,-0.3333 2.209083,-0.9999 0.501245,-0.67177 0.751866,-1.56315 0.751866,-2.67416 0,-1.11616 -0.242871,-1.99722 -0.728608,-2.64314 -0.242871,-0.32039 -0.550339,-0.57361 -0.922392,-0.75962 -0.372057,-0.1757 -0.811294,-0.26354 -1.317701,-0.26354 z m 19.377964,0.0154 c -0.950806,0 -1.707855,0.34105 -2.271096,1.02316 -0.563253,0.67694 -0.844886,1.57608 -0.844886,2.69742 0,1.12133 0.284218,2.00755 0.852641,2.65867 0.568411,0.64592 1.495978,0.96888 2.782667,0.96888 0.718267,0 1.405553,-0.12142 2.061806,-0.36431 v -1.42622 c -0.630427,0.26872 -1.278949,0.40307 -1.945539,0.40307 -0.279037,0 -0.552908,-0.0232 -0.821633,-0.0697 -0.930126,-0.16019 -1.395203,-0.72603 -1.395203,-1.6975 h 4.534442 c 0.03107,-0.19638 0.04648,-0.48059 0.04648,-0.85263 0,-0.97664 -0.260933,-1.77763 -0.782848,-2.40287 -0.521915,-0.62528 -1.260863,-0.93792 -2.216833,-0.93792 z m 0.0087,1.39523 c 0.454724,0 0.829364,0.14474 1.123899,0.43407 0.294551,0.28421 0.441827,0.67435 0.441827,1.17041 h -3.154723 c 0,-0.51156 0.152449,-0.90687 0.457321,-1.18592 0.304886,-0.27904 0.682098,-0.41856 1.131676,-0.41856 z m -19.362463,0.0154 c 0.258374,0 0.477991,0.0414 0.658853,0.12403 0.186025,0.0827 0.338467,0.21445 0.457318,0.39531 0.118864,0.18087 0.206703,0.4134 0.26354,0.69761 0.05683,0.27904 0.08528,0.70792 0.08528,1.28668 0,0.57877 -0.116267,1.0645 -0.348806,1.45722 -0.227369,0.38757 -0.602009,0.58135 -1.123922,0.58135 -0.516744,0 -0.893971,-0.19378 -1.131672,-0.58135 -0.232536,-0.39272 -0.348803,-0.97665 -0.348803,-1.75176 0,-0.77511 0.116267,-1.33578 0.348803,-1.682 0.232533,-0.35138 0.612345,-0.52709 1.139423,-0.52709 z m 12.874728,0.0621 c 0.217021,0 0.413389,0.0311 0.589077,0.093 0.58909,0.20154 0.883636,0.71053 0.883636,1.527 v 1.99205 c -0.134368,0.23769 -0.330722,0.41339 -0.589091,0.52707 -0.258355,0.11372 -0.524491,0.17053 -0.798369,0.17053 -0.816452,-0.004 -1.346128,-0.3979 -1.588999,-1.1782 -0.08266,-0.27902 -0.126559,-0.68984 -0.131809,-1.23241 0,-0.54777 0.123997,-0.99992 0.372068,-1.35648 0.253199,-0.36171 0.674356,-0.54257 1.263446,-0.54257 z m -18.660988,11.64227 v 9.95251 h 4.627459 v -1.61223 h -3.11598 v -8.34028 z m 18.912894,0 v 2.92993 h -1.170426 v 1.34097 h 1.170426 v 3.14697 c 0,0.84748 0.227362,1.5089 0.682097,1.98431 0.45475,0.47024 1.046412,0.70536 1.775026,0.70536 0.341063,0 0.658861,-0.0311 0.953392,-0.0931 v -1.41071 c -0.196355,0.0619 -0.397879,0.0931 -0.604587,0.0931 -0.914643,0 -1.371964,-0.44182 -1.371964,-1.32543 v -3.10049 h 1.658767 v -1.34097 h -1.658767 v -2.92993 z m -4.077125,2.72842 c -0.413395,0 -0.800956,0.11881 -1.162676,0.35654 -0.361723,0.23771 -0.599427,0.57101 -0.71311,0.9999 l 0.01552,-1.11617 h -1.43397 v 6.98382 h 1.449474 v -4.20888 c 0,-0.56325 0.129198,-0.97664 0.387559,-1.24019 0.26354,-0.26871 0.627844,-0.40307 1.092918,-0.40307 0.914637,0 1.371967,0.54775 1.371967,1.64326 v 4.20888 h 1.441719 v -4.31741 c 0,-1.93778 -0.816466,-2.90668 -2.449383,-2.90668 z m 17.339389,0 c -0.134363,0 -0.294539,0.0207 -0.480566,0.0619 -0.687287,0.13951 -1.162683,0.49866 -1.426225,1.07741 l -0.06189,-0.95339 h -1.495986 v 7.02257 h 1.542505 v -4.07718 c 0,-0.51672 0.170517,-0.91721 0.511562,-1.20141 0.341059,-0.28939 0.757035,-0.43407 1.247941,-0.43407 0.227364,0 0.418561,0.0208 0.573592,0.0619 v -1.51923 c -0.139495,-0.0259 -0.276455,-0.0388 -0.410818,-0.0388 z m -24.106175,0.0155 c -0.501238,0 -0.937892,0.0879 -1.309949,0.26356 -1.111001,0.53742 -1.666507,1.67167 -1.666507,3.40276 0,1.11618 0.253212,2.00756 0.759617,2.67417 0.506411,0.66659 1.247944,0.99989 2.224591,0.99989 0.976646,0 1.713014,-0.3333 2.209088,-0.99989 0.501238,-0.67177 0.751865,-1.56316 0.751865,-2.67417 0,-1.11616 -0.242872,-1.99722 -0.728612,-2.64316 -0.242867,-0.32036 -0.550335,-0.57358 -0.922388,-0.7596 -0.372057,-0.1757 -0.811295,-0.26356 -1.317705,-0.26356 z m 16.944098,0.0311 c -0.578768,0 -1.18077,0.1136 -1.806036,0.34105 v 1.45722 c 0.738954,-0.28937 1.338371,-0.43407 1.79828,-0.43407 1.13167,0 1.697504,0.38758 1.697504,1.16269 v 0.26353 c -0.253215,-0.036 -0.560676,-0.0543 -0.92239,-0.0543 -2.061801,-0.004 -3.092716,0.75705 -3.092716,2.28662 0,0.46505 0.06719,0.8423 0.201538,1.13166 0.351375,0.78547 1.067065,1.17819 2.147086,1.17819 0.795769,0 1.351274,-0.24029 1.666482,-0.72086 l 0.03107,0.6201 h 1.480475 v -4.39503 c 0,-1.018 -0.26097,-1.74401 -0.782872,-2.17809 -0.516745,-0.43923 -1.322868,-0.65885 -2.418359,-0.65885 z m 10.293556,0 c -0.57875,0 -1.180766,0.1136 -1.806023,0.34105 v 1.45722 c 0.738951,-0.28937 1.33837,-0.43407 1.798268,-0.43407 1.131686,0 1.697523,0.38758 1.697523,1.16269 v 0.26353 c -0.253203,-0.036 -0.560679,-0.0543 -0.922381,-0.0543 -2.061822,-0.004 -3.09274,0.75705 -3.09274,2.28662 0,0.46505 0.06724,0.8423 0.201538,1.13166 0.351374,0.78547 1.067084,1.17819 2.147081,1.17819 0.795773,0 1.351282,-0.24029 1.666502,-0.72086 l 0.03107,0.6201 h 1.480487 v -4.39503 c 0,-1.018 -0.26097,-1.74401 -0.782873,-2.17809 -0.516745,-0.43923 -1.322884,-0.65885 -2.418366,-0.65885 z m -27.214398,1.39521 c 0.258373,0 0.477992,0.0414 0.658848,0.12403 0.186029,0.0827 0.338471,0.21444 0.457324,0.39531 0.118865,0.18087 0.206701,0.41339 0.263539,0.6976 0.05684,0.27904 0.08526,0.70794 0.08526,1.28669 0,0.57878 -0.116255,1.06452 -0.348802,1.45724 -0.22737,0.38756 -0.602013,0.58133 -1.123927,0.58133 -0.516744,0 -0.893967,-0.19377 -1.131671,-0.58133 -0.232533,-0.39272 -0.3488,-0.97666 -0.3488,-1.75176 0,-0.77512 0.116255,-1.3358 0.3488,-1.68201 0.232536,-0.3514 0.612349,-0.52709 1.139427,-0.52709 z m 17.928502,2.46488 c 0.258356,0 0.485733,0.0157 0.682088,0.0465 v 1.42622 c -0.206696,0.41857 -0.643361,0.62785 -1.309939,0.62785 -0.217036,0.004 -0.405648,-0.009 -0.56584,-0.0389 -0.465077,-0.0827 -0.697609,-0.38239 -0.697609,-0.89911 0,-0.77513 0.630425,-1.16269 1.8913,-1.16269 z m 10.29356,0 c 0.258372,0 0.485749,0.0157 0.682104,0.0465 v 1.42622 c -0.206696,0.41857 -0.643353,0.62785 -1.309958,0.62785 -0.217024,0.004 -0.405636,-0.009 -0.565837,-0.0389 -0.465068,-0.0827 -0.697602,-0.38239 -0.697602,-0.89911 0,-0.77513 0.630427,-1.16269 1.891293,-1.16269 z m -31.610883,9.23941 v 9.95253 h 1.433973 v -7.89072 l 1.984302,7.42565 h 1.418465 l 1.99981,-7.42565 v 7.89072 h 1.418466 v -9.95253 h -2.294114 l -1.844779,7.06134 -1.821531,-7.06134 z m 21.455277,0 v 9.95253 h 1.542476 v -9.95253 z m 2.046321,0.48832 v 1.51148 h 1.480462 v -1.51148 z m 5.069266,2.2556 c -0.868131,0 -1.560575,0.23512 -2.077308,0.70535 -0.516757,0.46508 -0.77513,1.08775 -0.77513,1.86805 0,0.77512 0.312635,1.3978 0.937904,1.86803 -0.268725,0.20154 -0.477994,0.41597 -0.627854,0.64334 -0.144753,0.2222 -0.217024,0.50382 -0.217024,0.84489 0,0.50123 0.227364,0.90431 0.682104,1.20919 -0.723465,0.46505 -1.085179,1.04122 -1.085179,1.72851 0,1.19884 0.961157,1.79825 2.883446,1.79825 1.090325,0 1.994635,-0.23251 2.712918,-0.69759 0.71827,-0.45991 1.077412,-1.06966 1.077412,-1.82929 0,-0.62524 -0.198953,-1.11356 -0.596846,-1.46496 -0.397893,-0.35657 -1.015407,-0.54004 -1.852529,-0.55033 -0.831965,-0.0155 -1.4133,-0.0232 -1.744018,-0.0232 -0.32556,-0.004 -0.576165,-0.0723 -0.751876,-0.20152 -0.09296,-0.0672 -0.139496,-0.21187 -0.139496,-0.43406 0,-0.22738 0.155019,-0.44443 0.465068,-0.65112 0.413404,0.0931 0.782885,0.13949 1.108421,0.13949 0.857803,0 1.537309,-0.22738 2.038568,-0.68209 0.506405,-0.45992 0.759607,-1.02576 0.759607,-1.69752 0,-0.29971 -0.02585,-0.53226 -0.07755,-0.69759 0.434071,-0.036 0.788043,-0.13695 1.061926,-0.30231 v -1.52699 c -0.609759,0.39786 -1.170438,0.61491 -1.682025,0.6511 -0.527073,-0.46508 -1.227273,-0.69761 -2.100562,-0.69761 z m 7.169853,0 c -0.50126,0 -0.937904,0.0879 -1.309958,0.26353 -1.111006,0.53743 -1.666502,1.67169 -1.666502,3.40277 0,1.11617 0.253214,2.00757 0.759619,2.67418 0.506405,0.66659 1.247941,0.99991 2.224584,0.99991 0.976655,0 1.713021,-0.33332 2.209085,-0.99991 0.501247,-0.67178 0.751852,-1.56318 0.751852,-2.67418 0,-1.11616 -0.242862,-1.99722 -0.728586,-2.64313 -0.242887,-0.32041 -0.550351,-0.5736 -0.922393,-0.75964 -0.372055,-0.17568 -0.811297,-0.26353 -1.317701,-0.26353 z m -23.935655,0.0155 c -0.950819,0 -1.707849,0.34106 -2.271103,1.02315 -0.563248,0.67693 -0.844876,1.57607 -0.844881,2.69742 0,1.12133 0.284216,2.00753 0.852632,2.65865 0.568421,0.64594 1.495976,0.9689 2.782674,0.9689 0.718275,0 1.405542,-0.12142 2.061816,-0.36429 v -1.42623 c -0.630423,0.2687 -1.278942,0.40306 -1.945543,0.40306 -0.27905,0 -0.552928,-0.0232 -0.821622,-0.0697 -0.930147,-0.16018 -1.395221,-0.72601 -1.395221,-1.6975 h 4.534455 c 0.0311,-0.19637 0.04644,-0.48058 0.04644,-0.85263 0,-0.97666 -0.260953,-1.77761 -0.782859,-2.40287 -0.521907,-0.62527 -1.260862,-0.93789 -2.216837,-0.93789 z m 30.508649,0 c -0.950804,0 -1.707826,0.34106 -2.27109,1.02315 -0.56324,0.67693 -0.84489,1.57607 -0.84489,2.69742 1.2e-5,1.12133 0.284211,2.00753 0.852633,2.65865 0.568434,0.64594 1.495985,0.9689 2.782689,0.9689 0.718271,0 1.405557,-0.12142 2.061798,-0.36429 v -1.42623 c -0.630427,0.2687 -1.278937,0.40306 -1.945543,0.40306 -0.279041,0 -0.552924,-0.0232 -0.821624,-0.0697 -0.930148,-0.16018 -1.395216,-0.72601 -1.395216,-1.6975 h 4.53445 c 0.03107,-0.19637 0.04648,-0.48058 0.04648,-0.85263 0,-0.97666 -0.260958,-1.77761 -0.782873,-2.40287 -0.521915,-0.62527 -1.260866,-0.93789 -2.216841,-0.93789 z m -27.012868,0.1395 v 4.36392 c -0.0041,0.48058 0.03366,0.89655 0.116192,1.24793 0.237688,1.06449 0.922385,1.59675 2.054049,1.59675 1.126507,0 1.813787,-0.42373 2.061816,-1.27119 v 1.11616 H -39.77 v -7.05357 h -1.472719 v 4.18564 c 0,1.111 -0.459906,1.66649 -1.379705,1.66649 -0.475417,0 -0.821622,-0.13436 -1.03867,-0.40306 -0.217021,-0.27388 -0.325553,-0.695 -0.325553,-1.26343 v -4.18564 z m 8.200755,0.0311 v 7.02259 h 1.480462 v -7.02259 z m 5.053756,1.01542 c 0.873313,0 1.309945,0.42631 1.309945,1.27894 0,0.40308 -0.09831,0.72086 -0.294539,0.95341 -0.196355,0.22736 -0.524487,0.34103 -0.984398,0.34103 -0.888787,0 -1.333199,-0.42889 -1.333199,-1.28668 0,-0.8578 0.434072,-1.2867 1.302191,-1.2867 z m -16.74255,0.20928 c 0.454736,0 0.829377,0.14475 1.123922,0.43407 0.294545,0.2842 0.441825,0.67435 0.441825,1.17042 h -3.155359 c 0,-0.51158 0.152444,-0.90688 0.457324,-1.18593 0.304875,-0.27904 0.6821,-0.41856 1.131667,-0.41856 z m 30.508662,0 c 0.454728,0 0.829392,0.14475 1.123906,0.43407 0.294564,0.2842 0.441827,0.67435 0.441827,1.17042 h -3.154731 c 0,-0.51158 0.152458,-0.90688 0.457325,-1.18593 0.304879,-0.27904 0.682091,-0.41856 1.131673,-0.41856 z m -6.557496,0.0157 c 0.25836,0 0.477981,0.0413 0.658838,0.12403 0.186027,0.0827 0.338461,0.21445 0.457325,0.39531 0.118691,0.18084 0.206696,0.4134 0.263531,0.6976 0.0568,0.27905 0.08526,0.70796 0.08526,1.2867 0,0.57874 -0.116205,1.0645 -0.348789,1.45721 -0.227363,0.38757 -0.602015,0.58135 -1.123931,0.58135 -0.516745,0 -0.893969,-0.19378 -1.131661,-0.58135 -0.232546,-0.39271 -0.348813,-0.97664 -0.348813,-1.75176 0,-0.7751 0.116204,-1.33578 0.348813,-1.682 0.232522,-0.35138 0.612331,-0.52707 1.139417,-0.52707 z m -7.751187,6.03041 1.441723,0.0311 c 0.413378,0.0112 0.695017,0.0879 0.844865,0.23254 0.149861,0.14476 0.224791,0.34623 0.224791,0.6046 0,0.12404 -0.04897,0.25319 -0.1473,0.38756 -0.31005,0.42355 -1.010237,0.63285 -2.100587,0.62785 -0.418548,0 -0.767362,-0.0723 -1.04639,-0.21705 -0.273883,-0.13949 -0.410819,-0.3643 -0.410819,-0.67433 0.0037,-0.14476 0.02324,-0.27648 0.05431,-0.39531 0.124035,-0.4134 0.503832,-0.61236 1.139429,-0.59685 z m -23.414779,5.67388 v 9.95251 h 1.464977 v -6.66604 l -0.031,-0.90688 3.278753,7.5729 h 1.883542 v -9.95252 h -1.465598 v 6.55751 c 0,0.1395 0.01548,0.47281 0.04652,0.9999 l -3.37952,-7.55741 z m 16.293006,2.72841 c -0.413403,0 -0.800957,0.11882 -1.162686,0.35655 -0.361729,0.2377 -0.599431,0.57102 -0.713104,0.9999 l 0.01549,-1.11616 h -1.433965 v 6.98381 h 1.449474 v -4.20889 c 0,-0.56325 0.129118,-0.97664 0.387553,-1.24019 0.263552,-0.2687 0.627853,-0.40307 1.092931,-0.40307 0.914621,0 1.371943,0.54777 1.371943,1.64326 v 4.20889 h 1.441711 v -4.31739 c 0,-1.93781 -0.816467,-2.90671 -2.449355,-2.90671 z m 27.04386,0 c -0.134363,0 -0.294539,0.0208 -0.480567,0.0619 -0.687274,0.13949 -1.162682,0.49866 -1.426225,1.07739 l -0.06189,-0.95339 h -1.495973 v 7.02258 h 1.542492 v -4.0772 c 0,-0.51674 0.170542,-0.91721 0.511575,-1.20143 0.341058,-0.28937 0.757035,-0.43406 1.247954,-0.43406 0.227376,0 0.418548,0.0207 0.573592,0.0619 v -1.51922 c -0.139496,-0.0259 -0.276481,-0.0387 -0.410831,-0.0387 z m -20.98246,0.0155 c -0.868131,0 -1.560563,0.23513 -2.07732,0.70537 -0.516745,0.46507 -0.775118,1.08774 -0.775118,1.86802 0,0.77512 0.312647,1.39781 0.937916,1.86804 -0.268725,0.20154 -0.478006,0.41598 -0.627854,0.64336 -0.144753,0.2222 -0.217036,0.50383 -0.217036,0.84487 0,0.50126 0.227376,0.9043 0.682092,1.20921 -0.723441,0.46506 -1.085167,1.04124 -1.085167,1.72849 0,1.19885 0.961169,1.79828 2.883446,1.79828 1.090337,0 1.994647,-0.23253 2.712918,-0.69761 0.718282,-0.45989 1.077411,-1.06966 1.077411,-1.82927 0,-0.62525 -0.19894,-1.1136 -0.596833,-1.46497 -0.397893,-0.3566 -1.015419,-0.54004 -1.852529,-0.55034 -0.831965,-0.0155 -1.4133,-0.0232 -1.74403,-0.0232 -0.325548,-0.004 -0.576177,-0.0723 -0.751864,-0.20154 -0.09296,-0.0672 -0.139483,-0.21187 -0.139483,-0.43407 0,-0.22737 0.155006,-0.4444 0.465068,-0.6511 0.413403,0.0931 0.782873,0.13951 1.10842,0.13951 0.857803,0 1.537322,-0.22739 2.038557,-0.68213 0.506404,-0.4599 0.759619,-1.02573 0.759619,-1.6975 0,-0.29971 -0.02585,-0.53224 -0.07755,-0.69761 0.434072,-0.036 0.788043,-0.13694 1.061926,-0.3023 v -1.52697 c -0.609758,0.39785 -1.170425,0.6149 -1.682012,0.65109 -0.527086,-0.46505 -1.22726,-0.69761 -2.100574,-0.69761 z m 7.348137,0 c -0.868144,0 -1.560588,0.23513 -2.07732,0.70537 -0.516745,0.46507 -0.77513,1.08774 -0.77513,1.86802 0,0.77512 0.312659,1.39781 0.937891,1.86804 -0.268688,0.20154 -0.477981,0.41598 -0.627829,0.64336 -0.144753,0.2222 -0.217036,0.50383 -0.217036,0.84487 0,0.50126 0.227351,0.9043 0.682104,1.20921 -0.723441,0.46506 -1.085167,1.04124 -1.085167,1.72849 0,1.19885 0.961144,1.79828 2.883434,1.79828 1.090337,0 1.994647,-0.23253 2.712917,-0.69761 0.718283,-0.45989 1.077424,-1.06966 1.077424,-1.82927 0,-0.62525 -0.198952,-1.1136 -0.596845,-1.46497 -0.397893,-0.3566 -1.015407,-0.54004 -1.852542,-0.55034 -0.831952,-0.0155 -1.4133,-0.0232 -1.744005,-0.0232 -0.32556,-0.004 -0.576177,-0.0723 -0.751877,-0.20154 -0.09309,-0.0672 -0.139495,-0.21187 -0.139495,-0.43407 0,-0.22737 0.155018,-0.4444 0.465056,-0.6511 0.413403,0.0931 0.782872,0.13951 1.108432,0.13951 0.857779,0 1.53731,-0.22739 2.038557,-0.68213 0.506417,-0.4599 0.759619,-1.02573 0.759619,-1.6975 0,-0.29971 -0.02585,-0.53224 -0.07755,-0.69761 0.43406,-0.036 0.788043,-0.13694 1.061914,-0.3023 v -1.52697 c -0.609759,0.39785 -1.170438,0.6149 -1.682013,0.65109 -0.527085,-0.46505 -1.227272,-0.69761 -2.100561,-0.69761 z m -20.377874,0.0311 c -0.578738,0 -1.180753,0.11372 -1.80602,0.34104 v 1.45723 c 0.738941,-0.28939 1.338372,-0.43406 1.798278,-0.43406 1.131663,0 1.697502,0.38756 1.697502,1.16268 v 0.26353 c -0.253198,-0.0362 -0.560655,-0.0542 -0.922384,-0.0542 -2.061816,-0.004 -3.092717,0.75702 -3.092717,2.28659 0,0.46508 0.06719,0.84232 0.201524,1.13167 0.351388,0.78545 1.067078,1.17818 2.147082,1.17818 0.795784,0 1.351283,-0.24027 1.666495,-0.72085 l 0.0311,0.6201 h 1.480481 v -4.39499 c 0,-1.018 -0.260953,-1.74405 -0.782873,-2.17809 -0.516736,-0.43925 -1.322862,-0.65887 -2.418362,-0.65887 z m 26.850112,0 c -0.57875,0 -1.180778,0.11372 -1.806022,0.34104 v 1.45723 c 0.738938,-0.28939 1.338369,-0.43406 1.798267,-0.43406 1.131673,0 1.69751,0.38756 1.69751,1.16268 v 0.26353 c -0.253227,-0.0362 -0.560679,-0.0542 -0.922381,-0.0542 -2.061822,-0.004 -3.092739,0.75702 -3.092739,2.28659 0,0.46508 0.06724,0.84232 0.20155,1.13167 0.351374,0.78545 1.067072,1.17818 2.147068,1.17818 0.795761,0 1.351282,-0.24027 1.666502,-0.72085 l 0.03107,0.6201 h 1.480475 v -4.39499 c 0,-1.018 -0.26097,-1.74405 -0.782873,-2.17809 -0.516733,-0.43925 -1.322871,-0.65887 -2.418366,-0.65887 z m -13.835873,1.17042 c 0.873314,0 1.309946,0.42631 1.309946,1.27894 0,0.40306 -0.09831,0.72086 -0.294539,0.9534 -0.196355,0.22737 -0.524488,0.34106 -0.984398,0.34106 -0.888812,0 -1.333212,-0.42889 -1.333212,-1.2867 0,-0.85778 0.434059,-1.2867 1.302203,-1.2867 z m 7.348124,0 c 0.873289,0 1.309946,0.42631 1.309946,1.27894 0,0.40306 -0.09818,0.72086 -0.294551,0.9534 -0.196343,0.22737 -0.524501,0.34106 -0.984398,0.34106 -0.888787,0 -1.333199,-0.42889 -1.333199,-1.2867 0,-0.85778 0.434071,-1.2867 1.302202,-1.2867 z m -19.3547,2.68966 c 0.258367,0 0.485742,0.0155 0.682097,0.0465 v 1.42622 c -0.206681,0.41856 -0.64335,0.62786 -1.309937,0.62786 -0.217048,0.004 -0.405647,-0.007 -0.565838,-0.0388 -0.465077,-0.0827 -0.697608,-0.38239 -0.697608,-0.89913 0,-0.77511 0.630424,-1.16269 1.891286,-1.16269 z m 26.8501,0 c 0.258373,0 0.485737,0.0155 0.682104,0.0465 v 1.42622 c -0.206708,0.41856 -0.643352,0.62786 -1.309945,0.62786 -0.217036,0.004 -0.405648,-0.007 -0.565837,-0.0388 -0.465081,-0.0827 -0.697615,-0.38239 -0.697615,-0.89913 0,-0.77511 0.630427,-1.16269 1.891293,-1.16269 z m -15.386108,3.56556 1.441711,0.0311 c 0.413404,0.0112 0.695042,0.0879 0.84489,0.23253 0.149849,0.14476 0.224792,0.34623 0.224792,0.6046 0,0.12404 -0.04897,0.25321 -0.147289,0.38756 -0.310049,0.42357 -1.010236,0.63286 -2.100586,0.62785 -0.418561,0 -0.767362,-0.0723 -1.04639,-0.21704 -0.273883,-0.13948 -0.410831,-0.36429 -0.410831,-0.67436 0.0037,-0.14474 0.02324,-0.27644 0.05419,-0.3953 0.124035,-0.41338 0.503845,-0.61234 1.139429,-0.59682 z m 7.348125,0 1.441723,0.0311 c 0.413404,0.0112 0.69503,0.0879 0.844878,0.23253 0.149848,0.14476 0.224804,0.34623 0.224804,0.6046 0,0.12404 -0.04897,0.25321 -0.147313,0.38756 -0.31005,0.42357 -1.010237,0.63286 -2.100562,0.62785 -0.418561,0 -0.767375,-0.0723 -1.046415,-0.21704 -0.273859,-0.13948 -0.410819,-0.36429 -0.410819,-0.67436 0.0037,-0.14474 0.02324,-0.27644 0.05431,-0.3953 0.124035,-0.41338 0.503845,-0.61234 1.139429,-0.59682 z m -22.311009,5.54209 c -2.423522,0 -3.6353,1.69752 -3.6353,5.09253 2e-6,1.58641 0.273875,2.81109 0.821628,3.67406 0.59942,0.96115 1.534738,1.44173 2.805931,1.44173 0.661432,0 1.22727,-0.12656 1.697503,-0.37981 1.297038,-0.70795 1.945557,-2.28662 1.945557,-4.73598 0,-3.39501 -1.211786,-5.09253 -3.635319,-5.09253 z m 22.416438,0.1318 v 9.95254 h 1.54248 v -9.95254 z m -8.565081,0.0155 v 9.99127 h 1.36422 l 0.04648,-0.62009 c 0.377212,0.48056 0.955987,0.72087 1.73625,0.72087 0.955987,0 1.689768,-0.35657 2.201355,-1.06967 0.516733,-0.7131 0.775118,-1.64328 0.775118,-2.79042 0,-0.56843 -0.06724,-1.07483 -0.201538,-1.51924 -0.403051,-1.32286 -1.281547,-1.98431 -2.635415,-1.98431 -0.893957,0 -1.503715,0.33071 -1.829276,0.99215 V 501.671 Z m 6.611771,0.47283 v 1.51147 h 1.480475 v -1.51163 z m 3.99961,0 v 1.51147 h 1.480487 v -1.51163 z m -24.447227,0.88363 c 0.754438,0 1.278943,0.27905 1.573488,0.83712 0.299716,0.55293 0.449567,1.45205 0.449567,2.69741 0,1.24536 -0.157606,2.16001 -0.472819,2.74393 -0.315211,0.57873 -0.842301,0.86814 -1.581242,0.86814 -0.733777,0 -1.255696,-0.28681 -1.56574,-0.86039 -0.30488,-0.57877 -0.457322,-1.4934 -0.457322,-2.74392 0,-1.2557 0.155027,-2.16 0.465074,-2.71291 0.310046,-0.55292 0.839713,-0.82938 1.588994,-0.82938 z m 29.656026,1.35645 c -0.413404,0 -0.800956,0.11882 -1.16267,0.35656 -0.361727,0.23769 -0.599418,0.57099 -0.713125,0.9999 l 0.01566,-1.11618 h -1.433981 v 6.98383 h 1.449479 v -4.2089 c 0,-0.56323 0.129118,-0.97664 0.387552,-1.24018 0.26353,-0.26873 0.627867,-0.40306 1.09291,-0.40306 0.91465,0 1.371963,0.54774 1.371963,1.64324 v 4.2089 h 1.441723 v -4.31739 c 0,-1.9378 -0.816454,-2.90669 -2.449374,-2.90669 z m -22.261402,0.009 c -0.449566,0 -0.850044,0.11869 -1.201419,0.35657 -0.34622,0.23769 -0.578764,0.56067 -0.697608,0.9689 l -0.06193,-1.16268 h -1.356454 v 7.05358 h 1.449475 v -4.21665 c 0,-0.64593 0.113632,-1.08516 0.341035,-1.3177 0.227388,-0.2377 0.552927,-0.35655 0.97667,-0.35655 0.206681,0 0.387553,0.0363 0.542574,0.10863 0.155033,0.0723 0.297116,0.20669 0.426314,0.40306 0.134367,0.19635 0.201524,0.58393 0.201524,1.16267 v 4.21663 h 1.449481 v -4.21663 c 0,-0.67694 0.142056,-1.1446 0.426316,-1.40296 0.196368,-0.18086 0.506414,-0.2713 0.930145,-0.2713 0.191197,0 0.364299,0.0389 0.51933,0.11621 0.155019,0.0775 0.297124,0.22219 0.426304,0.43407 0.134375,0.20667 0.201538,0.58132 0.201538,1.1239 v 4.21665 h 1.441723 v -4.34067 c 0,-1.91712 -0.692456,-2.8757 -2.07732,-2.8757 -1.02832,0 -1.707835,0.48059 -2.038549,1.44175 -0.294552,-0.96116 -0.927552,-1.44175 -1.899039,-1.44175 z m 13.052993,0.1938 v 7.02257 h 1.480475 v -7.02257 z m 3.99961,0 v 7.02257 h 1.480487 v -7.02257 z m -7.758943,1.3022 c 0.645937,0 1.092922,0.18086 1.340967,0.54258 0.253214,0.35654 0.379797,0.88363 0.379797,1.58125 0,1.45721 -0.589078,2.18583 -1.767259,2.18583 -0.563264,0 -1.012821,-0.16796 -1.348709,-0.50384 v -2.18584 c 0,-0.28419 0.03617,-0.52964 0.108623,-0.73635 0.211854,-0.58909 0.640768,-0.88363 1.28668,-0.88363 z m -14.247437,11.64227 v 9.95253 h 1.542481 v -3.22449 h 1.038656 c 0.651104,0 1.201446,-0.08 1.650999,-0.2403 1.240194,-0.43922 1.860306,-1.53991 1.860306,-3.30201 0,-2.12381 -1.170439,-3.18573 -3.511305,-3.18573 z m 13.634323,0 v 2.92996 h -1.170426 v 1.34095 h 1.170426 v 3.14699 c 0,0.84745 0.227376,1.50889 0.682116,1.9843 0.454715,0.47022 1.046403,0.70535 1.775026,0.70535 0.341033,0 0.658838,-0.0311 0.95339,-0.0931 v -1.41071 c -0.196368,0.0619 -0.397906,0.093 -0.604601,0.093 -0.914638,0 -1.371951,-0.44181 -1.371951,-1.32544 v -3.10047 h 1.658734 v -1.34095 h -1.658734 v -2.92996 z m 4.991775,0 v 2.92996 h -1.170438 v 1.34095 h 1.170438 v 3.14699 c 0,0.84745 0.227352,1.50889 0.682092,1.9843 0.45474,0.47022 1.046415,0.70535 1.775026,0.70535 0.341071,0 0.65885,-0.0311 0.953389,-0.0931 v -1.41071 c -0.196355,0.0619 -0.397893,0.093 -0.6046,0.093 -0.914626,0 -1.371951,-0.44181 -1.371951,-1.32544 v -3.10047 h 1.658771 v -1.34095 h -1.658771 v -2.92996 z m 3.860077,0.48833 v 1.51148 h 1.480475 v -1.51148 z m -20.943694,0.96114 h 0.899146 c 0.66143,0.004 1.134262,0.10079 1.418467,0.2868 0.423715,0.27905 0.635593,0.81128 0.635593,1.59674 0,0.43924 -0.05937,0.78288 -0.178272,1.0309 -0.113632,0.24804 -0.289388,0.44699 -0.527076,0.59685 -0.232545,0.14983 -0.682125,0.22478 -1.348712,0.22478 h -0.899146 z m 42.2517019,1.27896 c -0.134376,0 -0.294527,0.0208 -0.480567,0.0619 -0.687261,0.13948 -1.162682,0.49866 -1.426225,1.07741 l -0.06189,-0.9534 h -1.495973 v 7.02257 h 1.54248 v -4.07719 c 0,-0.51675 0.170517,-0.91724 0.511575,-1.20144 0.341033,-0.2894 0.757034,-0.43407 1.247941,-0.43407 0.227376,0 0.418573,0.0208 0.573592,0.0619 v -1.51921 c -0.139496,-0.0259 -0.276456,-0.0388 -0.410819,-0.0388 z m -16.0681999,0.007 c -0.449557,0 -0.850048,0.11869 -1.201446,0.35654 -0.346216,0.23769 -0.57875,0.56068 -0.69759,0.9689 l -0.06189,-1.16268 h -1.356465 v 7.05359 h 1.449466 v -4.21665 c 0,-0.64594 0.113719,-1.08517 0.341058,-1.3177 0.227364,-0.2377 0.552912,-0.35656 0.976656,-0.35656 0.206695,0 0.387552,0.036 0.54257,0.1085 0.155019,0.0723 0.297124,0.20671 0.426317,0.40307 0.134363,0.19638 0.201538,0.58392 0.201538,1.16268 v 4.21666 h 1.449466 v -4.21666 c 0,-0.67694 0.142043,-1.14459 0.426316,-1.40297 0.196355,-0.18085 0.50643,-0.27128 0.930136,-0.27128 0.191198,0 0.364324,0.0387 0.51933,0.11621 0.155019,0.0776 0.297124,0.2222 0.426329,0.43407 0.134363,0.20671 0.201526,0.58135 0.201526,1.12392 v 4.21666 h 1.441711 v -4.34067 c 0,-1.91713 -0.692445,-2.87571 -2.077308,-2.87571 -1.028333,0 -1.707839,0.4806 -2.038569,1.44173 -0.294527,-0.96113 -0.927551,-1.44173 -1.899036,-1.44173 z m -18.936136,0.0388 c -0.578762,0 -1.180774,0.11372 -1.806027,0.34105 v 1.45721 c 0.738931,-0.28936 1.338362,-0.43408 1.798272,-0.43408 1.131661,0 1.697498,0.38759 1.697498,1.1627 v 0.26353 c -0.253202,-0.036 -0.560666,-0.0542 -0.922393,-0.0542 -2.061794,-0.004 -3.09272,0.75704 -3.09272,2.28659 0,0.46504 0.06724,0.84229 0.201526,1.13167 0.351407,0.78545 1.067089,1.17817 2.147085,1.17817 0.795774,0 1.351295,-0.24029 1.666502,-0.72084 l 0.03107,0.62009 h 1.480475 v -4.39502 c 0,-1.01798 -0.26097,-1.74402 -0.782885,-2.17809 -0.516758,-0.43922 -1.322859,-0.65884 -2.418366,-0.65884 z m 38.13582657,0 c -0.5787624,0 -1.18077807,0.11372 -1.80603467,0.34105 v 1.45721 c 0.7389509,-0.28936 1.33836917,-0.43408 1.79827937,-0.43408 1.13167383,0 1.69751083,0.38759 1.69751083,1.1627 v 0.26353 c -0.2532272,-0.036 -0.5606792,-0.0542 -0.92239323,-0.0542 -2.06180987,-0.004 -3.09271497,0.75704 -3.09271497,2.28659 0,0.46504 0.06711,0.84229 0.201525,1.13167 0.351387,0.78545 1.0670719,1.17817 2.14709347,1.17817 0.7957734,0 1.35127003,-0.24029 1.66648973,-0.72084 l 0.031071,0.62009 h 1.4804748 v -4.39502 c 0,-1.01798 -0.26097,-1.74402 -0.7828728,-2.17809 -0.516745,-0.43922 -1.3228712,-0.65884 -2.41837863,-0.65884 z m -12.73522057,0.12404 v 4.36392 c -0.0037,0.48058 0.03368,0.89655 0.116205,1.24793 0.237704,1.06449 0.922406,1.59675 2.054067,1.59675 1.1265039,0 1.8137779,-0.42373 2.0618349,-1.27118 v 1.11616 h 1.457196 v -7.05358 h -1.472707 v 4.18564 c 0,1.111 -0.459922,1.66649 -1.379718,1.66649 -0.4753959,0 -0.8216119,-0.13436 -1.0386479,-0.40305 -0.217048,-0.27388 -0.325548,-0.69501 -0.325548,-1.26344 v -4.18564 z m -11.704278,0.0311 v 7.02256 h 1.480475 v -7.02256 z m -12.688676,3.70507 c 0.258372,0 0.485736,0.0157 0.682091,0.0465 v 1.4262 c -0.206695,0.41857 -0.643352,0.62785 -1.309945,0.62785 -0.217024,0.004 -0.405649,-0.007 -0.565837,-0.0388 -0.465068,-0.0826 -0.697602,-0.3824 -0.697602,-0.89912 0,-0.77513 0.630427,-1.16268 1.891293,-1.16268 z m 38.1358261,0 c 0.2583601,0 0.485724,0.0157 0.682104,0.0465 v 1.4262 c -0.206708,0.41857 -0.6433649,0.62785 -1.30994583,0.62785 -0.2170483,0.004 -0.4056482,-0.007 -0.5658369,-0.0388 -0.465068,-0.0826 -0.6976145,-0.3824 -0.6976145,-0.89912 0,-0.77513 0.630427,-1.16268 1.89129323,-1.16268 z m -43.5345211,9.2394 v 9.95255 h 1.542481 v -3.68185 h 1.154921 l 1.930053,3.68185 h 1.798255 l -2.139326,-3.96863 c 1.276365,-0.35137 1.914559,-1.32027 1.914559,-2.90668 0,-0.59427 -0.08787,-1.08776 -0.263555,-1.48048 -0.485748,-1.06449 -1.560563,-1.59676 -3.224488,-1.59676 z m 14.331928,0 v 2.92997 h -1.170437 v 1.34094 h 1.17045 v 3.14699 c 0,0.84745 0.227364,1.5089 0.682104,1.98428 0.454727,0.47024 1.046403,0.70538 1.775026,0.70538 0.341046,0 0.658838,-0.0311 0.953389,-0.0931 v -1.41083 c -0.196355,0.0619 -0.397893,0.093 -0.604601,0.093 -0.914625,0 -1.37195,-0.44182 -1.37195,-1.32544 v -3.10048 h 1.658747 v -1.34095 h -1.658747 v -2.92996 z m -12.789447,1.44946 h 1.023159 c 0.661432,0.004 1.123911,0.0748 1.387454,0.20929 0.428877,0.22219 0.645888,0.695 0.651108,1.41847 0.01118,0.72341 -0.217049,1.20658 -0.682129,1.44944 -0.227364,0.11397 -0.679503,0.1733 -1.356433,0.17828 h -1.023159 z m 8.146485,1.29444 c -0.501247,0 -0.937879,0.0879 -1.309958,0.26355 -1.110993,0.5374 -1.66649,1.67168 -1.66649,3.40276 0,1.11618 0.253215,2.00756 0.759607,2.67417 0.506405,0.66659 1.247954,0.99991 2.224596,0.99991 0.976643,0 1.713009,-0.33332 2.209098,-0.99991 0.501235,-0.67178 0.751864,-1.56316 0.751864,-2.67417 0,-1.11615 -0.242874,-1.99721 -0.728623,-2.64314 -0.242862,-0.32039 -0.550338,-0.5736 -0.922393,-0.75962 -0.372042,-0.1757 -0.811296,-0.26355 -1.317701,-0.26355 z m 11.564783,0.0155 c -0.950817,0 -1.707851,0.34107 -2.271116,1.02316 -0.563251,0.67695 -0.844877,1.57609 -0.844877,2.69742 0,1.12135 0.284211,2.00756 0.85262,2.65866 0.568447,0.64591 1.495998,0.9689 2.78269,0.9689 0.718271,0 1.405557,-0.12143 2.061822,-0.3643 v -1.42623 c -0.630439,0.26871 -1.278974,0.40306 -1.945555,0.40306 -0.27904,0 -0.552911,-0.0232 -0.821624,-0.0697 -0.930136,-0.16019 -1.395204,-0.72602 -1.395204,-1.69751 h 4.534438 c 0.03107,-0.19635 0.04648,-0.48055 0.04648,-0.85261 0,-0.97666 -0.260958,-1.77761 -0.782873,-2.40287 -0.521902,-0.62528 -1.260841,-0.93789 -2.216816,-0.93789 z m 0.0075,1.39523 c 0.454727,0 0.829367,0.14475 1.123906,0.43406 0.294551,0.28421 0.441827,0.67436 0.441827,1.17044 h -3.154732 c 0,-0.51158 0.152433,-0.9069 0.457313,-1.18594 0.304879,-0.27905 0.682116,-0.41856 1.131686,-0.41856 z m -11.549272,0.0155 c 0.25836,0 0.477981,0.0413 0.65885,0.12404 0.186015,0.0826 0.338473,0.21444 0.457313,0.39531 0.11869,0.18085 0.206695,0.4134 0.263555,0.69761 0.0568,0.27904 0.08526,0.70794 0.08526,1.28669 0,0.57875 -0.116205,1.0645 -0.348788,1.45724 -0.227376,0.38755 -0.602016,0.58133 -1.123919,0.58133 -0.516757,0 -0.893982,-0.19378 -1.131686,-0.58133 -0.232546,-0.39274 -0.348801,-0.97665 -0.348801,-1.75178 0,-0.7751 0.116205,-1.33578 0.348801,-1.68201 0.232534,-0.35138 0.612344,-0.52708 1.139441,-0.52708 z m -2.368777,11.50277 c -0.986984,0 -1.780184,0.2377 -2.379603,0.71311 -0.59943,0.47541 -0.89914,1.12392 -0.89914,1.94556 -0.0037,1.12648 0.364312,1.93003 1.108421,2.41061 0.237704,0.15503 0.666606,0.34623 1.28668,0.57359 0.625269,0.2377 1.056768,0.43923 1.29446,0.6046 0.377224,0.25835 0.565837,0.59941 0.565837,1.02314 0,0.94046 -0.656266,1.4107 -1.968809,1.4107 -0.160176,0 -0.330705,-0.004 -0.511562,-0.0155 -0.676934,-0.0311 -1.227273,-0.21187 -1.651017,-0.54259 v 1.72853 c 0.206708,0.10838 0.457326,0.21184 0.751877,0.31003 0.294539,0.0983 0.837122,0.1473 1.62775,0.1473 1.131662,0 1.994635,-0.27903 2.588896,-0.83715 0.599418,-0.55807 0.899127,-1.28669 0.899127,-2.18581 0,-0.90431 -0.217036,-1.57091 -0.651095,-1.9998 -0.43406,-0.43408 -1.134259,-0.84232 -2.100562,-1.2247 -0.356568,-0.1395 -0.612356,-0.24287 -0.767374,-0.31005 -0.547754,-0.23252 -0.821625,-0.59167 -0.821625,-1.07741 0,-0.76994 0.617514,-1.15493 1.852542,-1.15493 0.873289,0 1.54248,0.20152 2.007548,0.6046 v -1.64326 c -0.19638,-0.10863 -0.452155,-0.21445 -0.767375,-0.31779 -0.310049,-0.10863 -0.798358,-0.16279 -1.464976,-0.16279 z m 20.075576,0.21705 v 9.99127 h 1.364208 l 0.04648,-0.6201 c 0.377237,0.48056 0.955987,0.72085 1.736262,0.72085 0.955987,0 1.689768,-0.35654 2.2013429,-1.06965 0.51677,-0.7131 0.775118,-1.64326 0.775118,-2.79044 0,-0.56842 -0.06724,-1.07484 -0.201526,-1.51922 -0.403063,-1.32286 -1.2815339,-1.9843 -2.6354019,-1.9843 -0.893969,0 -1.503728,0.3307 -1.829276,0.99216 v -3.72057 z m -7.270608,2.7129 c -0.134375,0 -0.294552,0.0208 -0.480579,0.0619 v 7.9e-4 c -0.687261,0.1395 -1.162682,0.49865 -1.426225,1.0774 l -0.06189,-0.95338 h -1.495985 v 7.0218 h 1.542504 v -4.07636 c 0,-0.51676 0.170517,-0.91799 0.511563,-1.20219 0.341058,-0.28938 0.757046,-0.43329 1.24794,-0.43329 0.227377,0 0.418574,0.0199 0.573605,0.0611 v -1.51923 c -0.139496,-0.0258 -0.276468,-0.0388 -0.410831,-0.0388 z m 3.82908,0.0155 c -0.501234,0 -0.937891,0.0879 -1.309945,0.26353 -1.111006,0.53741 -1.666515,1.67168 -1.666515,3.40279 0,1.11615 0.253228,2.00756 0.759632,2.67414 0.506405,0.66659 1.247929,0.99991 2.224571,0.99991 0.976643,0 1.713021,-0.33332 2.209098,-0.99991 0.501259,-0.67177 0.751852,-1.56316 0.751852,-2.67414 0,-1.1162 -0.242837,-1.99725 -0.728586,-2.64317 -0.242875,-0.32039 -0.550351,-0.57359 -0.922393,-0.75962 -0.372055,-0.17569 -0.811297,-0.26353 -1.317714,-0.26353 z m 12.9909959,0 c -0.501247,0 -0.937904,0.0879 -1.309959,0.26353 -1.110993,0.53741 -1.666514,1.67168 -1.666514,3.40279 0,1.11615 0.253215,2.00756 0.759619,2.67414 0.506405,0.66659 1.247941,0.99991 2.224584,0.99991 0.976668,0 1.713046,-0.33332 2.209098,-0.99991 0.501247,-0.67177 0.751864,-1.56316 0.751864,-2.67414 0,-1.1162 -0.242862,-1.99725 -0.728611,-2.64317 -0.242874,-0.32039 -0.550326,-0.57359 -0.92238,-0.75962 -0.372067,-0.17569 -0.811297,-0.26353 -1.317701,-0.26353 z m 13.5800734,0 c -0.5012345,0 -0.9379037,0.0879 -1.3099457,0.26353 -1.111018,0.53741 -1.6665149,1.67168 -1.6665149,3.40279 0,1.11615 0.2532023,2.00756 0.7596074,2.67414 0.506417,0.66659 1.2479656,0.99991 2.224596,0.99991 0.9766553,0 1.7130213,-0.33332 2.2090859,-0.99991 0.501247,-0.67177 0.751864,-1.56316 0.751864,-2.67414 0,-1.1162 -0.242862,-1.99725 -0.728599,-2.64317 -0.242874,-0.32039 -0.5503382,-0.57359 -0.9223803,-0.75962 -0.3720792,-0.17569 -0.8112963,-0.26353 -1.3177134,-0.26353 z m -40.0038663,0.15502 v 4.36389 c -0.0037,0.48059 0.03368,0.89658 0.116205,1.24796 0.237692,1.06451 0.922381,1.59675 2.054054,1.59675 1.126492,0 1.813778,-0.42374 2.06181,-1.27118 v 1.11616 h 1.457222 v -7.05358 h -1.47272 v 4.18563 c 0,1.11101 -0.45991,1.66651 -1.379706,1.66651 -0.475408,0 -0.821624,-0.13437 -1.038672,-0.40306 -0.217024,-0.27388 -0.325548,-0.69504 -0.325548,-1.26345 v -4.18563 z m 29.8730759,0.0386 2.78266547,7.06908 -0.2790408,0.97664 c -0.1498359,0.53225 -0.3849923,0.89396 -0.7053573,1.08516 -0.3203775,0.19125 -0.77512997,0.20154 -1.36419537,0.0311 v 1.26344 c 0.3410333,0.0827 0.68724917,0.12403 1.03863527,0.12403 0.3513861,0 0.6485226,-0.0619 0.891397,-0.18601 0.2428619,-0.11882 0.4443997,-0.28424 0.6046009,-0.49609 0.16534643,-0.2067 0.30228173,-0.45474 0.41080593,-0.74412 0.1137192,-0.28421 0.2325216,-0.59166 0.3565439,-0.92238 l 3.046208,-8.20076 H 3.1062911 l -1.7130213,5.48783 -1.76725853,-5.48783 z m -16.4170249,1.23244 c 0.258372,0 0.477993,0.0414 0.65885,0.12404 0.186027,0.0826 0.338461,0.21446 0.457313,0.3953 0.119063,0.18087 0.206745,0.41341 0.263543,0.69761 0.0568,0.27904 0.08526,0.70794 0.08526,1.2867 0,0.57875 -0.116205,1.06447 -0.348789,1.45721 -0.227376,0.38755 -0.602003,0.58135 -1.123918,0.58135 -0.516733,0 -0.893969,-0.1938 -1.131661,-0.58135 -0.232559,-0.39274 -0.348814,-0.97666 -0.348814,-1.75177 0,-0.77511 0.116205,-1.33578 0.348814,-1.68199 0.232521,-0.35139 0.612331,-0.5271 1.139416,-0.5271 z m 12.9909829,0 c 0.258372,0 0.477993,0.0414 0.658863,0.12404 0.186014,0.0826 0.33846,0.21446 0.457312,0.3953 0.118939,0.18087 0.206746,0.41341 0.263543,0.69761 0.0568,0.27904 0.08526,0.70794 0.08526,1.2867 0,0.57875 -0.116205,1.06447 -0.348801,1.45721 -0.227376,0.38755 -0.602015,0.58135 -1.123918,0.58135 -0.516745,0 -0.893957,-0.1938 -1.131662,-0.58135 -0.232534,-0.39274 -0.348825,-0.97666 -0.348825,-1.75177 0,-0.77511 0.116204,-1.33578 0.348825,-1.68199 0.23251,-0.35139 0.612344,-0.5271 1.139417,-0.5271 z m 13.5800858,0 c 0.2583601,0 0.4779935,0.0414 0.6588505,0.12404 0.1860396,0.0826 0.3384731,0.21446 0.4573128,0.3953 0.118939,0.18087 0.2067452,0.41341 0.2635426,0.69761 0.056798,0.27904 0.085258,0.70794 0.085258,1.2867 0,0.57875 -0.1162049,1.06447 -0.348801,1.45721 -0.2273763,0.38755 -0.6020158,0.58135 -1.1239185,0.58135 -0.5167202,0 -0.8939697,-0.1938 -1.1316615,-0.58135 -0.232534,-0.39274 -0.3488134,-0.97666 -0.3488134,-1.75177 0,-0.77511 0.1162049,-1.33578 0.3488134,-1.68199 0.2325092,-0.35139 0.6123438,-0.5271 1.1394171,-0.5271 z m -20.3003687,0.0619 c 0.645937,0 1.092935,0.18086 1.340979,0.54258 0.253178,0.35655 0.379798,0.88365 0.379798,1.58124 0,1.45723 -0.589091,2.18584 -1.767259,2.18584 -0.563277,0 -1.012847,-0.16795 -1.348722,-0.50384 v -2.18583 c 0,-0.28421 0.03641,-0.52967 0.108623,-0.73637 0.211866,-0.58906 0.640755,-0.88362 1.28668,-0.88362 z m -23.636454,11.64226 v 1.61226 h 2.457142 v 8.34028 h 1.627738 v -8.34028 h 2.44162 v -1.61226 z m 22.687713,0.0155 v 9.99128 h 1.36422 l 0.04648,-0.62008 c 0.377249,0.48056 0.955999,0.72085 1.736287,0.72085 0.9559749,0 1.6897549,-0.35656 2.2013299,-1.06967 0.516745,-0.71311 0.77513,-1.64325 0.77513,-2.79041 0,-0.56842 -0.06724,-1.07485 -0.201538,-1.51925 -0.403063,-1.32287 -1.281547,-1.9843 -2.635414,-1.9843 -0.8939699,0 -1.5037159,0.33073 -1.8292759,0.99215 v -3.72057 z m 16.5100264,2.71369 c -0.1343627,10e-6 -0.2945514,0.0199 -0.4805786,0.0611 l -7.954e-4,7.9e-4 c -0.6872493,0.13951 -1.1626701,0.49866 -1.4262128,1.07743 l -0.061147,-0.95341 h -1.49602973 v 7.02181 H 1.4367001 v -4.07729 c 0,-0.51674 0.1705415,-0.91646 0.5115872,-1.20066 0.3410458,-0.28939 0.7570219,-0.43407 1.2479284,-0.43407 0.2273638,0 0.4185612,0.0199 0.5735922,0.0613 v -1.51921 c -0.1394831,-0.0259 -0.2764557,-0.038 -0.4108184,-0.038 z m -22.9512554,0.007 c -0.44957,0 -0.850048,0.11881 -1.201422,0.35654 -0.346216,0.2377 -0.578775,0.56069 -0.697614,0.96892 l -0.06189,-1.16269 h -1.356452 v 7.0536 h 1.449479 v -4.21666 c 0,-0.64594 0.113594,-1.08516 0.341045,-1.3177 0.227364,-0.23769 0.552924,-0.35655 0.976656,-0.35655 0.206683,0 0.387552,0.0361 0.542571,0.10838 0.155043,0.0723 0.297136,0.20671 0.426328,0.40307 0.134375,0.19637 0.201513,0.58391 0.201513,1.16269 v 4.21664 h 1.449479 v -4.21664 c 0,-0.67694 0.142043,-1.1446 0.426304,-1.40297 0.196392,-0.18086 0.506417,-0.27129 0.930161,-0.27129 0.191197,0 0.364299,0.0388 0.519317,0.1162 0.155031,0.0776 0.297149,0.22221 0.426317,0.43408 0.134362,0.2067 0.201538,0.58134 0.201538,1.12392 v 4.21664 h 1.441723 v -4.34067 c 0,-1.91712 -0.692444,-2.87569 -2.077333,-2.87569 -1.02832,0 -1.707839,0.48058 -2.038569,1.44172 -0.294514,-0.96114 -0.927538,-1.44172 -1.899023,-1.44172 z m 15.9906959,0.009 c -0.501235,0 -0.937891,0.0879 -1.309946,0.26354 -1.110993,0.53741 -1.666489,1.67168 -1.666489,3.40277 0,1.11618 0.253177,2.00755 0.759594,2.67416 0.506405,0.6666 1.247953,0.99991 2.224596,0.99991 0.976643,0 1.713021,-0.33331 2.2090858,-0.99991 0.50124677,-0.67178 0.75186407,-1.56316 0.75186407,-2.67416 0,-1.11617 -0.242862,-1.99723 -0.72861067,-2.64315 -0.2428742,-0.32038 -0.5503392,-0.57358 -0.9223932,-0.75962 -0.372054,-0.17569 -0.811284,-0.26354 -1.317701,-0.26354 z m -22.9900199,0.0311 c -0.57875,0 -1.180766,0.11359 -1.806022,0.34105 v 1.45724 c 0.738951,-0.28938 1.338381,-0.43407 1.798267,-0.43407 1.131686,0 1.697523,0.38756 1.697523,1.16268 v 0.26354 c -0.253202,-0.036 -0.560692,-0.0543 -0.922393,-0.0543 -2.06181,-0.004 -3.092727,0.75703 -3.092727,2.2866 0,0.46507 0.06724,0.84229 0.201537,1.13166 0.351374,0.78545 1.067084,1.17818 2.147069,1.17818 0.795798,0 1.351294,-0.24027 1.666514,-0.72085 l 0.03107,0.6201 h 1.480487 v -4.39507 c 0,-1.01799 -0.260958,-1.74402 -0.78286,-2.17808 -0.516758,-0.43923 -1.322896,-0.65885 -2.418391,-0.65885 z m 33.0820585,0 c -0.5787499,0 -1.1807661,0.11359 -1.8060228,0.34105 l -7.954e-4,1.45724 c 0.7389511,-0.28938 1.3383697,-0.43407 1.7982675,-0.43407 1.1316738,0 1.6975107,0.38756 1.6975107,1.16268 v 0.26354 c -0.2531899,-0.036 -0.5606543,-0.0543 -0.9223807,-0.0543 -2.0618103,-0.004 -3.0927276,0.75703 -3.0927276,2.2866 0,0.46507 0.067237,0.84229 0.2015377,1.13166 0.3513737,0.78545 1.0670714,1.17818 2.147081,1.17818 0.7957859,0 1.3512824,-0.24027 1.6664896,-0.72085 l 0.031816,0.6201 h 1.4804433 v -4.39507 c 0,-1.01799 -0.26097,-1.74402 -0.7828728,-2.17808 -0.516745,-0.43923 -1.3228836,-0.65885 -2.4183786,-0.65885 z m -10.0687976,1.39521 c 0.258385,0 0.477993,0.0415 0.658863,0.12404 0.186027,0.0827 0.33846,0.21445 0.457325,0.39531 0.118815,0.18085 0.206745,0.41341 0.26353,0.6976 0.0568,0.27905 0.08526,0.70795 0.08526,1.2867 0,0.57875 -0.116205,1.06451 -0.348826,1.45721 -0.227364,0.38757 -0.602004,0.58135 -1.123919,0.58135 -0.516732,0 -0.893957,-0.19378 -1.131661,-0.58135 -0.232534,-0.3927 -0.348826,-0.97664 -0.348826,-1.75176 0,-0.7751 0.116205,-1.33578 0.348826,-1.682 0.232534,-0.35139 0.612344,-0.52708 1.139416,-0.52708 z m -6.7202699,0.0619 c 0.6459369,0 1.0929219,0.18087 1.3409659,0.54258 0.25319,0.35656 0.379798,0.88365 0.379798,1.58126 0,1.4572 -0.589091,2.18582 -1.7672589,2.18582 -0.563252,0 -1.012834,-0.16794 -1.348722,-0.50384 v -2.18582 c 0,-0.28421 0.03629,-0.52968 0.108624,-0.73638 0.211865,-0.58909 0.640767,-0.88362 1.286692,-0.88362 z m -15.285339,2.40288 c 0.258385,0 0.485748,0.0155 0.682116,0.0465 v 1.42621 c -0.206708,0.41857 -0.643352,0.62786 -1.309971,0.62786 -0.217023,0.004 -0.405635,-0.007 -0.565824,-0.0389 -0.465056,-0.0826 -0.697602,-0.3824 -0.697602,-0.89914 0,-0.77513 0.630439,-1.16268 1.891281,-1.16268 z m 33.0820705,0 c 0.2583725,0 0.4857239,0.0155 0.6821039,0.0465 v 1.42621 c -0.2066831,0.41857 -0.6433524,0.62786 -1.3099458,0.62786 -0.2170483,0.004 -0.4056606,-0.007 -0.5658369,-0.0389 -0.4650804,-0.0826 -0.6976269,-0.3824 -0.6976269,-0.89914 0,-0.77513 0.6304518,-1.16268 1.8913057,-1.16268 z m -29.9420535,9.2394 v 9.95253 h 1.542479 v -9.95253 z m 23.9821604,0 v 2.92995 H 0.36779597 v 1.34095 H 1.5382214 v 3.147 c 0,0.84745 0.2273762,1.50887 0.6821163,1.98429 0.4547152,0.47023 1.0464031,0.70536 1.7750262,0.70536 0.3410458,0 0.6588381,-0.0311 0.9533895,-0.093 v -1.41027 c -0.1963676,0.0619 -0.3979054,0.093 -0.6046009,0.093 -0.9146379,0 -1.3719507,-0.4418 -1.3719507,-1.32544 v -3.10049 h 1.6587344 v -1.34094 H 2.9722018 v -2.92995 z m -31.1442704,0.007 v 5.84438 c 0.0037,0.64077 0.05431,1.2247 0.1473,1.75178 0.310038,1.68974 1.377134,2.53464 3.201252,2.53464 1.271182,0 2.165139,-0.39273 2.681896,-1.17818 0.43923,-0.66144 0.658838,-1.69751 0.658838,-3.10824 v -5.84451 h -1.588974 v 5.82889 c 0,0.97666 -0.116205,1.66393 -0.348813,2.06182 -0.232522,0.3979 -0.702785,0.59685 -1.410702,0.59685 -0.702785,0 -1.173036,-0.19895 -1.410715,-0.59685 -0.237717,-0.39789 -0.356556,-1.08516 -0.356556,-2.06182 v -5.82889 z m 26.2997949,2.76718 c -0.578775,0 -1.180778,0.11372 -1.806035,0.34104 v 1.458 c 0.738939,-0.28937 1.33837,-0.43408 1.79828,-0.43408 1.131661,0 1.697498,0.38681 1.697498,1.16192 v 0.26354 c -0.253202,-0.036 -0.560666,-0.0543 -0.922393,-0.0543 -2.061797,-0.004 -3.092727,0.75703 -3.092727,2.28659 0,0.46506 0.06724,0.8423 0.201525,1.13167 0.351411,0.78544 1.067096,1.17817 2.147081,1.17817 0.795811,0 1.351319,-0.24029 1.666514,-0.72085 l 0.03107,0.62009 h 1.48046247 v -4.39505 c 0,-1.018 -0.2609451,-1.74402 -0.7828603,-2.17808 -0.51673257,-0.43923 -1.32285917,-0.65884 -2.41836617,-0.65884 z m -17.1378799,0.12403 v 4.36392 c -0.0037,0.48058 0.03368,0.89656 0.116204,1.24793 0.237717,1.0645 0.922394,1.59676 2.054067,1.59676 1.126504,0 1.813765,-0.42373 2.06181,-1.27118 v 1.11616 h 1.457221 v -7.05359 h -1.472732 v 4.18565 c 0,1.111 -0.459897,1.66649 -1.379706,1.66649 -0.475395,0 -0.821611,-0.13436 -1.03866,-0.40306 -0.217023,-0.27385 -0.325535,-0.69501 -0.325535,-1.26343 v -4.18565 z m 25.795938,0 v 4.36392 c -0.00373,0.48058 0.033681,0.89656 0.1162049,1.24793 0.2376921,1.0645 0.9223936,1.59676 2.054055,1.59676 1.126516,0 1.8137901,-0.42373 2.0618223,-1.27118 v 1.11616 h 1.4572088 v -7.05359 H 9.5683316 v 4.18565 c 0,1.111 -0.4598979,1.66649 -1.379706,1.66649 -0.4754084,0 -0.8216243,-0.13436 -1.0386602,-0.40306 -0.2170358,-0.27385 -0.3255352,-0.69501 -0.3255352,-1.26343 v -4.18565 z m -19.835263,0.0853 1.534724,6.96834 h 1.54248 l 1.178181,-4.10815 1.1549269,4.10815 h 1.54248 l 1.581244,-6.96834 h -1.441724 l -0.85262,4.66624 -1.232443,-3.92987 h -1.4572649 l -1.185936,3.92987 -0.937892,-4.66624 z m 12.1848319,3.65082 c 0.258372,0 0.485749,0.0157 0.682116,0.0465 v 1.42623 c -0.206695,0.41855 -0.643352,0.62785 -1.309945,0.62785 -0.217036,0.004 -0.405649,-0.007 -0.565837,-0.0387 -0.465081,-0.0826 -0.697602,-0.38241 -0.697602,-0.89915 0,-0.77512 0.630427,-1.16268 1.891268,-1.16268 z"
         style="font-style:normal;font-variant:normal;font-weight:normal;font-stretch:normal;font-size:10.5833px;line-height:1.25;font-family:Keraleeyam;-inkscape-font-specification:Keraleeyam;text-align:center;letter-spacing:0px;word-spacing:0px;text-anchor:middle;fill:#f2f2f2;fill-opacity:1;stroke:none;stroke-width:0.39686"
         id="path1572" />
      <text
         xml:space="preserve"
         style="font-style:normal;font-weight:normal;font-size:15.8743px;line-height:1.25;font-family:sans-serif;letter-spacing:0px;word-spacing:0px;fill:#ff0000;fill-opacity:1;stroke:none;stroke-width:0.39686"
         x="-5.2859554"
         y="606.85419"
         id="text1576"><tspan
           sodipodi:role="line"
           id="tspan1574"
           x="-5.2859554"
           y="606.85419"
           style="font-style:normal;font-variant:normal;font-weight:normal;font-stretch:normal;font-family:Keraleeyam;-inkscape-font-specification:Keraleeyam;text-align:center;text-anchor:middle;fill:#ff0000;stroke-width:0.39686">Verbeek</tspan></text>
      <ellipse
         ry="0.68048573"
         rx="30.028143"
         cy="612.25171"
         cx="-3.5084484"
         id="ellipse1578"
         style="fill:#ff0000;fill-opacity:1;fill-rule:nonzero;stroke-width:0.124457" />
    </g>
    <text
       xml:space="preserve"
       style="font-style:normal;font-weight:normal;font-size:10.5833px;line-height:1.25;font-family:sans-serif;letter-spacing:0px;word-spacing:0px;fill:#000000;fill-opacity:1;stroke:none;stroke-width:0.264583"
       x="30.335367"
       y="736.78363"
       id="text990"><tspan
         sodipodi:role="line"
         id="tspan988"
         x="30.335367"
         y="736.78363"
         style="stroke-width:0.264583" /></text>
  </g>
</svg>
