<?xml version="1.0" encoding="UTF-8" standalone="no"?>
<svg
   xmlns:dc="http://purl.org/dc/elements/1.1/"
   xmlns:cc="http://creativecommons.org/ns#"
   xmlns:rdf="http://www.w3.org/1999/02/22-rdf-syntax-ns#"
   xmlns:svg="http://www.w3.org/2000/svg"
   xmlns="http://www.w3.org/2000/svg"
   xmlns:sodipodi="http://sodipodi.sourceforge.net/DTD/sodipodi-0.dtd"
   xmlns:inkscape="http://www.inkscape.org/namespaces/inkscape"
   sodipodi:docname="BlankOn_Palette.svg"
   inkscape:version="1.0.1 (3bc2e813f5, 2020-09-07)"
   id="svg8"
   version="1.1"
   viewBox="0 0 204.94583 362.83087"
   height="362.83087mm"
   width="204.94583mm">
  <defs
     id="defs2" />
  <sodipodi:namedview
     inkscape:snap-page="true"
     inkscape:window-maximized="1"
     inkscape:window-y="36"
     inkscape:window-x="0"
     inkscape:window-height="1044"
     inkscape:window-width="1920"
     inkscape:lockguides="false"
     inkscape:snap-grids="false"
     inkscape:snap-to-guides="false"
     inkscape:snap-others="false"
     inkscape:object-nodes="true"
     inkscape:snap-nodes="true"
     inkscape:snap-global="true"
     showgrid="false"
     inkscape:document-rotation="0"
     inkscape:current-layer="layer1"
     inkscape:document-units="mm"
     inkscape:cy="586.97659"
     inkscape:cx="424.41457"
     inkscape:zoom="0.66578009"
     inkscape:pageshadow="2"
     inkscape:pageopacity="0"
     borderopacity="1.0"
     bordercolor="#666666"
     pagecolor="#acacac"
     id="base" />
  <metadata
     id="metadata5">
    <rdf:RDF>
      <cc:Work
         rdf:about="">
        <dc:format>image/svg+xml</dc:format>
        <dc:type
           rdf:resource="http://purl.org/dc/dcmitype/StillImage" />
        <dc:title></dc:title>
      </cc:Work>
    </rdf:RDF>
  </metadata>
  <g
     transform="translate(28.819114,-574.59587)"
     id="layer1"
     inkscape:groupmode="layer"
     inkscape:label="Layer 1">
    <path
       id="rect82"
       style="fill:#9800ff;fill-opacity:1;stroke:none;stroke-width:1;stroke-linecap:round;stroke-linejoin:round;stroke-opacity:0;stop-color:#000000"
       d="m -28.527987,233.74377 h 22.4832225 c 0.051036,0 0.092122,0.073 0.092122,0.16378 v 22.33992 c 0,0.0907 -0.041086,0.16377 -0.092122,0.16377 H -28.527987 c -0.05104,0 -0.09212,-0.073 -0.09212,-0.16377 v -22.33992 c 0,-0.0907 0.04109,-0.16378 0.09212,-0.16378 z" />
    <path
       id="rect84"
       style="fill:#00caff;fill-opacity:1;stroke:none;stroke-width:1;stroke-linecap:round;stroke-linejoin:round;stroke-opacity:0;stop-color:#000000"
       d="m -28.527987,305.84125 h 22.4832225 c 0.051036,0 0.092122,0.073 0.092122,0.16377 v 22.33992 c 0,0.0907 -0.041086,0.16377 -0.092122,0.16377 H -28.527987 c -0.05104,0 -0.09212,-0.073 -0.09212,-0.16377 v -22.33992 c 0,-0.0907 0.04109,-0.16377 0.09212,-0.16377 z" />
    <path
       id="rect86"
       style="fill:#ffc318;fill-opacity:1;stroke:none;stroke-width:1;stroke-linecap:round;stroke-linejoin:round;stroke-opacity:0;stop-color:#000000"
       d="m -28.527987,341.88998 h 22.4832225 c 0.051036,0 0.092122,0.0731 0.092122,0.16378 v 22.33992 c 0,0.0907 -0.041086,0.16377 -0.092122,0.16377 H -28.527987 c -0.05104,0 -0.09212,-0.073 -0.09212,-0.16377 v -22.33992 c 0,-0.0907 0.04109,-0.16378 0.09212,-0.16378 z" />
    <path
       id="rect88"
       style="fill:#ff7a00;fill-opacity:1;stroke:none;stroke-width:1;stroke-linecap:round;stroke-linejoin:round;stroke-opacity:0;stop-color:#000000"
       d="m -28.527987,377.93872 h 22.4832225 c 0.051036,0 0.092122,0.073 0.092122,0.16377 v 22.33992 c 0,0.0907 -0.041086,0.16378 -0.092122,0.16378 H -28.527987 c -0.05104,0 -0.09212,-0.073 -0.09212,-0.16378 v -22.33992 c 0,-0.0907 0.04109,-0.16377 0.09212,-0.16377 z" />
    <path
       id="rect90"
       style="fill:#d04634;fill-opacity:1;stroke:none;stroke-width:1;stroke-linecap:round;stroke-linejoin:round;stroke-opacity:0;stop-color:#000000"
       d="m -28.527987,413.98749 h 22.4832225 c 0.051036,0 0.092122,0.073 0.092122,0.16377 v 22.33992 c 0,0.0907 -0.041086,0.16377 -0.092122,0.16377 H -28.527987 c -0.05104,0 -0.09212,-0.073 -0.09212,-0.16377 v -22.33992 c 0,-0.0907 0.04109,-0.16377 0.09212,-0.16377 z" />
    <path
       id="rect92"
       style="fill:#0764ca;fill-opacity:1;stroke:none;stroke-width:1;stroke-linecap:round;stroke-linejoin:round;stroke-opacity:0;stop-color:#000000"
       d="m -28.527987,197.69504 h 22.4832225 c 0.051036,0 0.092122,0.073 0.092122,0.16377 v 22.33992 c 0,0.0907 -0.041086,0.16377 -0.092122,0.16377 H -28.527987 c -0.05104,0 -0.09212,-0.073 -0.09212,-0.16377 v -22.33992 c 0,-0.0907 0.04109,-0.16377 0.09212,-0.16377 z" />
    <path
       id="rect94"
       style="fill:#00ed74;fill-opacity:1;stroke:none;stroke-width:1;stroke-linecap:round;stroke-linejoin:round;stroke-opacity:0;stop-color:#000000"
       d="m -28.527987,269.79251 h 22.4832225 c 0.051036,0 0.092122,0.073 0.092122,0.16377 v 22.33992 c 0,0.0907 -0.041086,0.16378 -0.092122,0.16378 H -28.527987 c -0.05104,0 -0.09212,-0.073 -0.09212,-0.16378 v -22.33992 c 0,-0.0907 0.04109,-0.16377 0.09212,-0.16377 z" />
    <path
       id="rect96"
       style="fill:#f3f3f3;fill-opacity:1;stroke:none;stroke-width:1;stroke-linecap:round;stroke-linejoin:round;stroke-opacity:0;stop-color:#000000"
       d="M 310.31878,161.64629 H 332.802 c 0.051,0 0.0921,0.073 0.0921,0.16377 v 22.33992 c 0,0.0907 -0.0411,0.16377 -0.0921,0.16377 h -22.48322 c -0.051,0 -0.0921,-0.073 -0.0921,-0.16377 v -22.33992 c 0,-0.0907 0.0411,-0.16377 0.0921,-0.16377 z" />
    <path
       id="rect98"
       style="fill:#eaccff;fill-opacity:1;stroke:none;stroke-width:1;stroke-linecap:round;stroke-linejoin:round;stroke-opacity:0;stop-color:#000000"
       d="m 310.31875,233.74377 h 22.48322 c 0.051,0 0.0921,0.073 0.0921,0.16378 v 22.33992 c 0,0.0907 -0.0411,0.16377 -0.0921,0.16377 h -22.48322 c -0.051,0 -0.0921,-0.073 -0.0921,-0.16377 v -22.33992 c 0,-0.0907 0.0411,-0.16378 0.0921,-0.16378 z" />
    <path
       id="rect100"
       style="fill:#e8faff;fill-opacity:1;stroke:none;stroke-width:1;stroke-linecap:round;stroke-linejoin:round;stroke-opacity:0;stop-color:#000000"
       d="m 310.31875,305.84125 h 22.48322 c 0.051,0 0.0921,0.073 0.0921,0.16377 v 22.33992 c 0,0.0907 -0.0411,0.16377 -0.0921,0.16377 h -22.48322 c -0.051,0 -0.0921,-0.073 -0.0921,-0.16377 v -22.33992 c 0,-0.0907 0.0411,-0.16377 0.0921,-0.16377 z" />
    <path
       id="rect80"
       style="fill:#595959;fill-opacity:1;stroke:none;stroke-width:1;stroke-linecap:round;stroke-linejoin:round;stroke-opacity:0;stop-color:#000000"
       d="m -28.52798,161.64629 h 22.4832231 c 0.051036,0 0.092122,0.073 0.092122,0.16377 v 22.33992 c 0,0.0907 -0.041086,0.16377 -0.092122,0.16377 H -28.52798 c -0.05103,0 -0.09212,-0.073 -0.09212,-0.16377 v -22.33992 c 0,-0.0907 0.04109,-0.16377 0.09212,-0.16377 z" />
    <path
       id="rect102"
       style="fill:#fff3cd;fill-opacity:1;stroke:none;stroke-width:1;stroke-linecap:round;stroke-linejoin:round;stroke-opacity:0;stop-color:#000000"
       d="m 310.31875,341.88998 h 22.48322 c 0.051,0 0.0921,0.0731 0.0921,0.16378 v 22.33992 c 0,0.0907 -0.0411,0.16377 -0.0921,0.16377 h -22.48322 c -0.051,0 -0.0921,-0.073 -0.0921,-0.16377 v -22.33992 c 0,-0.0907 0.0411,-0.16378 0.0921,-0.16378 z" />
    <path
       id="rect104"
       style="fill:#ffe5cf;fill-opacity:1;stroke:none;stroke-width:1;stroke-linecap:round;stroke-linejoin:round;stroke-opacity:0;stop-color:#000000"
       d="m 310.31875,377.93872 h 22.48322 c 0.051,0 0.0921,0.073 0.0921,0.16377 v 22.33992 c 0,0.0907 -0.0411,0.16378 -0.0921,0.16378 h -22.48322 c -0.051,0 -0.0921,-0.073 -0.0921,-0.16378 v -22.33992 c 0,-0.0907 0.0411,-0.16377 0.0921,-0.16377 z" />
    <path
       id="rect106"
       style="fill:#fbefed;fill-opacity:1;stroke:none;stroke-width:1;stroke-linecap:round;stroke-linejoin:round;stroke-opacity:0;stop-color:#000000"
       d="m 310.31875,413.98749 h 22.48322 c 0.051,0 0.0921,0.073 0.0921,0.16377 v 22.33992 c 0,0.0907 -0.0411,0.16377 -0.0921,0.16377 h -22.48322 c -0.051,0 -0.0921,-0.073 -0.0921,-0.16377 v -22.33992 c 0,-0.0907 0.0411,-0.16377 0.0921,-0.16377 z" />
    <path
       id="rect108"
       style="fill:#cce2ff;fill-opacity:1;stroke:none;stroke-width:1;stroke-linecap:round;stroke-linejoin:round;stroke-opacity:0;stop-color:#000000"
       d="m 310.31875,197.69504 h 22.48322 c 0.051,0 0.0921,0.073 0.0921,0.16377 v 22.33992 c 0,0.0907 -0.0411,0.16377 -0.0921,0.16377 h -22.48322 c -0.051,0 -0.0921,-0.073 -0.0921,-0.16377 v -22.33992 c 0,-0.0907 0.0411,-0.16377 0.0921,-0.16377 z" />
    <path
       id="rect110"
       style="fill:#ccffe5;fill-opacity:1;stroke:none;stroke-width:1;stroke-linecap:round;stroke-linejoin:round;stroke-opacity:0;stop-color:#000000"
       d="m 310.31875,269.79251 h 22.48322 c 0.051,0 0.0921,0.073 0.0921,0.16377 v 22.33992 c 0,0.0907 -0.0411,0.16378 -0.0921,0.16378 h -22.48322 c -0.051,0 -0.0921,-0.073 -0.0921,-0.16378 v -22.33992 c 0,-0.0907 0.0411,-0.16377 0.0921,-0.16377 z" />
    <g
       id="g3138"
       transform="translate(0,21.712)"
       inkscape:export-xdpi="150"
       inkscape:export-ydpi="150">
      <path
         style="fill:#f3f3f3;fill-opacity:1;stroke:none;stroke-width:1px;stroke-linecap:round;stroke-linejoin:round;stroke-opacity:0;stop-color:#000000"
         d="m 152.81196,575.55187 h 22.483 v 0 c 0.051,0 0.092,0.073 0.092,0.164 v 0 c 0,0.087 0,22.34 0,22.34 v 0 c 0,0.091 -0.041,0.164 -0.092,0.164 v 0 c -0.088,0 -22.483,0 -22.483,0 v 0 c -0.051,0 -0.092,-0.073 -0.092,-0.164 v 0 c 0,-0.087 0,-22.34 0,-22.34 v 0 c 0,-0.091 0.041,-0.164 0.092,-0.164 z"
         id="path1649" />
      <path
         style="fill:#e1e1e1;fill-opacity:1;stroke:none;stroke-width:1px;stroke-linecap:round;stroke-linejoin:round;stroke-opacity:0;stop-color:#000000"
         d="m 130.14496,575.55187 h 22.483 v 0 c 0.051,0 0.092,0.073 0.092,0.164 v 0 c 0,0.078 0,22.34 0,22.34 v 0 c 0,0.091 -0.041,0.164 -0.092,0.164 v 0 c -0.078,0 -22.483,0 -22.483,0 v 0 c -0.051,0 -0.092,-0.073 -0.092,-0.164 v 0 c 0,-0.078 0,-22.34 0,-22.34 v 0 c 0,-0.091 0.041,-0.164 0.092,-0.164 z"
         id="path1651" />
      <path
         style="fill:#d0d0d0;fill-opacity:1;stroke:none;stroke-width:1px;stroke-linecap:round;stroke-linejoin:round;stroke-opacity:0;stop-color:#000000"
         d="m 107.47696,575.55187 h 22.484 v 0 c 0.051,0 0.092,0.073 0.092,0.164 v 0 c 0,0.068 0,22.34 0,22.34 v 0 c 0,0.091 -0.041,0.164 -0.092,0.164 v 0 c -0.069,0 -22.484,0 -22.484,0 v 0 c -0.051,0 -0.092,-0.073 -0.092,-0.164 v 0 c 0,-0.068 0,-22.34 0,-22.34 v 0 c 0,-0.091 0.042,-0.164 0.092,-0.164 z"
         id="path1653" />
      <path
         style="fill:#bfbfbf;fill-opacity:1;stroke:none;stroke-width:1px;stroke-linecap:round;stroke-linejoin:round;stroke-opacity:0;stop-color:#000000"
         d="m 84.80996,575.55187 h 22.483 v 0 c 0.051,0 0.092,0.073 0.092,0.164 v 0 c 0,0.058 0,22.34 0,22.34 v 0 c 0,0.091 -0.041,0.164 -0.092,0.164 v 0 c -0.058,0 -22.483,0 -22.483,0 v 0 c -0.051,0 -0.092,-0.073 -0.092,-0.164 v 0 c 0,-0.058 0,-22.34 0,-22.34 v 0 c 0,-0.091 0.041,-0.164 0.092,-0.164 z"
         id="path1655" />
      <path
         style="fill:#aeaeae;fill-opacity:1;stroke:none;stroke-width:1px;stroke-linecap:round;stroke-linejoin:round;stroke-opacity:0;stop-color:#000000"
         d="m 62.14196,575.55187 h 22.483 0.001 c 0.051,10e-4 0.092,0.073 0.092,0.164 v 0 c 0,0.048 0,22.34 0,22.34 v 0 c -0.001,0.091 -0.042,0.164 -0.093,0.164 v 0 c -0.048,0 -22.483,0 -22.483,0 v 0 c -0.051,-10e-4 -0.092,-0.073 -0.092,-0.164 v 0 c 0,-0.048 0,-22.34 0,-22.34 v 0 c 0,-0.091 0.041,-0.164 0.092,-0.164 z"
         id="path1657" />
      <path
         style="fill:#9d9d9d;fill-opacity:1;stroke:none;stroke-width:1px;stroke-linecap:round;stroke-linejoin:round;stroke-opacity:0;stop-color:#000000"
         d="m 39.47496,575.55187 h 22.483 v 0 c 0.051,10e-4 0.092,0.073 0.092,0.164 v 0 c 0,0.039 0,22.34 0,22.34 v 0 c 0,0.091 -0.041,0.164 -0.092,0.164 v 0 c -0.039,0 -22.483,0 -22.483,0 h -0.001 c -0.051,-10e-4 -0.092,-0.073 -0.092,-0.164 v 0 c 0,-0.039 0,-22.34 0,-22.34 v 0 c 10e-4,-0.091 0.042,-0.164 0.093,-0.164 z"
         id="path1659" />
      <path
         style="fill:#8c8c8c;fill-opacity:1;stroke:none;stroke-width:1px;stroke-linecap:round;stroke-linejoin:round;stroke-opacity:0;stop-color:#000000"
         d="m 16.80686,575.55187 h 22.4831 10e-4 c 0.05,10e-4 0.091,0.074 0.091,0.164 v 0 c 0,0.029 0,22.34 0,22.34 v 0 c 0,0.091 -0.041,0.164 -0.092,0.164 v 0 c -0.029,0 -22.4831,0 -22.4831,0 h -4e-4 c -0.0508,-10e-4 -0.0917,-0.073 -0.0917,-0.164 v 0 c 0,-0.029 0,-22.34 0,-22.34 v 0 c 1e-4,-0.091 0.0412,-0.164 0.0921,-0.164 z"
         id="path1661" />
      <path
         style="fill:#7b7b7b;fill-opacity:1;stroke:none;stroke-width:1px;stroke-linecap:round;stroke-linejoin:round;stroke-opacity:0;stop-color:#000000"
         d="m -5.8605395,575.55187 h 22.4831995 5e-4 c 0.0508,10e-4 0.0916,0.074 0.0916,0.164 v 0 c 0,0.019 0,22.34 0,22.34 v 0 c -10e-5,0.091 -0.0411,0.164 -0.0921,0.164 v 0 c -0.0195,0 -22.4831995,0 -22.4831995,0 h -5e-4 c -0.0508,-10e-4 -0.0916,-0.074 -0.0916,-0.164 v 0 c 0,-0.019 0,-22.34 0,-22.34 v 0 c 10e-5,-0.091 0.0412,-0.164 0.0921,-0.164 z"
         id="path1663" />
      <path
         style="fill:#6a6a6a;fill-opacity:1;stroke:none;stroke-width:1px;stroke-linecap:round;stroke-linejoin:round;stroke-opacity:0;stop-color:#000000"
         d="m -28.52798,575.55187 h 22.4832405 5e-4 c 0.0508,10e-4 0.0916,0.074 0.0916,0.164 v 0 c 0,0.01 0,22.34 0,22.34 v 0 c -10e-5,0.091 -0.0412,0.164 -0.0921,0.164 v 0 c -0.0098,0 -22.4832405,0 -22.4832405,0 h -5.3e-4 c -0.05078,-10e-4 -0.09159,-0.074 -0.09159,-0.164 v 0 c 0,-0.01 0,-22.34 0,-22.34 v 0 c 1.4e-4,-0.091 0.04118,-0.164 0.09212,-0.164 z"
         id="path1665" />
      <path
         style="fill:#595959;fill-opacity:1;stroke:none;stroke-width:3.00544px;stroke-linecap:round;stroke-linejoin:round;stroke-opacity:0;stop-color:#000000"
         d="m -27.788193,552.88387 h 203.083153 0.005 c 0.4585,10e-4 0.82676,0.074 0.82676,0.164 v 0 22.34 l -9e-5,10e-4 c -0.001,0.09 -0.37197,0.163 -0.83209,0.163 v 0 h -203.083153 -0.0054 c -0.457955,-10e-4 -0.826487,-0.074 -0.826487,-0.164 v 0 -22.34 0 c 0.0018,-0.091 0.372145,-0.164 0.831907,-0.164 z"
         id="path1667" />
    </g>
    <g
       id="g3150"
       inkscape:export-xdpi="150"
       inkscape:export-ydpi="150">
      <path
         style="fill:#075dbc;fill-opacity:1;stroke:none;stroke-width:3.00544px;stroke-linecap:round;stroke-linejoin:round;stroke-opacity:0;stop-color:#000000"
         d="m -27.788193,619.93187 h 203.083143 0.005 c 0.4585,10e-4 0.82676,0.073 0.82676,0.164 v 0 22.34 0 c -0.001,0.091 -0.37206,0.164 -0.83209,0.164 v 0 H -27.788193 l -0.0054,-10e-4 c -0.457955,0 -0.826487,-0.073 -0.826487,-0.163 v 0 -22.34 -10e-4 c 0.0018,-0.09 0.372145,-0.163 0.831907,-0.163 z"
         id="path1723" />
      <path
         style="fill:#1c71cf;fill-opacity:1;stroke:none;stroke-width:1px;stroke-linecap:round;stroke-linejoin:round;stroke-opacity:0;stop-color:#000000"
         d="m -28.528,642.59987 h 22.48325 5e-4 c 0.0508,10e-4 0.0916,0.073 0.0916,0.164 v 0 c 0,0.009 0,22.34 0,22.34 v 0 c -2e-4,0.091 -0.0412,0.164 -0.0921,0.164 h -1e-4 c -0.0097,0 -22.48315,0 -22.48315,0 l -5.3e-4,-10e-4 c -0.05079,0 -0.09159,-0.073 -0.09159,-0.163 v 0 c 0,-0.01 0,-22.34 0,-22.34 v -10e-4 c 1.5e-4,-0.09 0.04118,-0.163 0.09212,-0.163 z"
         id="path1725" />
      <path
         style="fill:#3280d5;fill-opacity:1;stroke:none;stroke-width:1px;stroke-linecap:round;stroke-linejoin:round;stroke-opacity:0;stop-color:#000000"
         d="m -5.86055,642.59987 h 22.4832 5e-4 c 0.0508,0 0.0916,0.073 0.0916,0.164 v 0 c 0,0.019 0,22.34 0,22.34 v 0 c -10e-5,0.091 -0.0411,0.164 -0.0921,0.164 v 0 c -0.0195,0 -22.4832,0 -22.4832,0 l -5e-4,-10e-4 c -0.0508,0 -0.0916,-0.073 -0.0916,-0.163 v 0 c 0,-0.02 0,-22.34 0,-22.34 v -10e-4 c 1e-4,-0.09 0.0411,-0.163 0.0921,-0.163 z"
         id="path1727" />
      <path
         style="fill:#488edb;fill-opacity:1;stroke:none;stroke-width:1px;stroke-linecap:round;stroke-linejoin:round;stroke-opacity:0;stop-color:#000000"
         d="m 16.80685,642.59987 h 22.4831 0.001 c 0.05,0 0.091,0.073 0.091,0.164 v 0 c 0,0.029 0,22.34 0,22.34 v 0 c 0,0.091 -0.041,0.164 -0.092,0.164 v 0 c -0.029,0 -22.4831,0 -22.4831,0 l -4e-4,-10e-4 c -0.0508,0 -0.0917,-0.073 -0.0917,-0.163 v 0 c 0,-0.029 0,-22.34 0,-22.34 v -10e-4 c 10e-5,-0.09 0.0412,-0.163 0.0921,-0.163 z"
         id="path1729" />
      <path
         style="fill:#5e9be1;fill-opacity:1;stroke:none;stroke-width:1px;stroke-linecap:round;stroke-linejoin:round;stroke-opacity:0;stop-color:#000000"
         d="m 39.47495,642.59987 h 22.483 v 0 c 0.051,0 0.092,0.073 0.092,0.164 v 0 c 0,0.039 0,22.34 0,22.34 v 0 c 0,0.091 -0.041,0.164 -0.092,0.164 v 0 c -0.039,0 -22.483,0 -22.483,0 l -10e-4,-10e-4 c -0.051,0 -0.092,-0.073 -0.092,-0.163 v 0 c 0,-0.039 0,-22.34 0,-22.34 v 0 c 10e-4,-0.091 0.042,-0.164 0.093,-0.164 z"
         id="path1731" />
      <path
         style="fill:#74aae7;fill-opacity:1;stroke:none;stroke-width:1px;stroke-linecap:round;stroke-linejoin:round;stroke-opacity:0;stop-color:#000000"
         d="m 62.14195,642.59987 h 22.483 0.001 c 0.051,0 0.092,0.073 0.092,0.164 v 0 c 0,0.048 0,22.34 0,22.34 v 0 c -0.001,0.091 -0.042,0.164 -0.093,0.164 v 0 c -0.048,0 -22.483,0 -22.483,0 v -10e-4 c -0.051,0 -0.092,-0.073 -0.092,-0.163 v 0 c 0,-0.049 0,-22.34 0,-22.34 v 0 c 0,-0.091 0.041,-0.164 0.092,-0.164 z"
         id="path1733" />
      <path
         style="fill:#8ab8ed;fill-opacity:1;stroke:none;stroke-width:1px;stroke-linecap:round;stroke-linejoin:round;stroke-opacity:0;stop-color:#000000"
         d="m 84.80995,642.59987 h 22.483 v 0 c 0.051,0 0.092,0.073 0.092,0.164 v 0 c 0,0.058 0,22.34 0,22.34 v 0 c 0,0.091 -0.041,0.164 -0.092,0.164 v 0 c -0.058,0 -22.483,0 -22.483,0 v -10e-4 c -0.051,0 -0.092,-0.073 -0.092,-0.163 v 0 c 0,-0.058 0,-22.34 0,-22.34 v 0 c 0,-0.091 0.041,-0.164 0.092,-0.164 z"
         id="path1735" />
      <path
         style="fill:#a0c6f3;fill-opacity:1;stroke:none;stroke-width:1px;stroke-linecap:round;stroke-linejoin:round;stroke-opacity:0;stop-color:#000000"
         d="m 107.47695,642.59987 h 22.484 v 0 c 0.051,0 0.092,0.073 0.092,0.164 v 0 c 0,0.068 0,22.34 0,22.34 v 0 c 0,0.09 -0.041,0.164 -0.092,0.164 h -0.001 c -0.068,0 -22.483,0 -22.483,0 v -10e-4 c -0.051,0 -0.092,-0.073 -0.092,-0.163 v 0 c 0,-0.068 0,-22.34 0,-22.34 v 0 c 0,-0.091 0.041,-0.164 0.092,-0.164 z"
         id="path1737" />
      <path
         style="fill:#b6d4f9;fill-opacity:1;stroke:none;stroke-width:1px;stroke-linecap:round;stroke-linejoin:round;stroke-opacity:0;stop-color:#000000"
         d="m 130.14495,642.59987 h 22.483 v 0 c 0.051,0 0.092,0.073 0.092,0.164 v 0 c 0,0.077 0,22.34 0,22.34 v 0 c 0,0.09 -0.041,0.164 -0.092,0.164 v 0 c -0.078,0 -22.483,0 -22.483,0 v -10e-4 c -0.051,0 -0.092,-0.073 -0.092,-0.163 v 0 c 0,-0.078 0,-22.34 0,-22.34 v 0 c 0,-0.091 0.041,-0.164 0.092,-0.164 z"
         id="path1739" />
      <path
         style="fill:#cce2ff;fill-opacity:1;stroke:none;stroke-width:1px;stroke-linecap:round;stroke-linejoin:round;stroke-opacity:0;stop-color:#000000"
         d="m 152.81195,642.59987 h 22.483 v 0 c 0.051,0 0.092,0.073 0.092,0.164 v 0 c 0,0.087 0,22.34 0,22.34 v 0 c 0,0.09 -0.041,0.164 -0.092,0.164 v 0 c -0.088,0 -22.483,0 -22.483,0 v 0 c -0.051,0 -0.092,-0.073 -0.092,-0.164 v -10e-4 c 0,-0.086 0,-22.339 0,-22.339 v 0 c 0,-0.091 0.041,-0.164 0.092,-0.164 z"
         id="path1741" />
    </g>
    <g
       id="g3162"
       transform="translate(0,-11.34675)"
       inkscape:export-xdpi="150"
       inkscape:export-ydpi="150">
      <path
         style="fill:#8700e3;fill-opacity:1;stroke:none;stroke-width:3.05308px;stroke-linecap:round;stroke-linejoin:round;stroke-opacity:0;stop-color:#000000"
         d="m -27.990281,676.61462 h 202.256541 0.005 c 0.45663,0 0.82339,0.0756 0.82339,0.16993 v 0 23.14714 10e-4 c -0.001,0.0933 -0.37054,0.1689 -0.8287,0.1689 v 0 h -202.256541 -0.0054 c -0.456091,0 -0.823123,-0.0756 -0.823123,-0.16993 v 0 -23.14714 -0.001 c 0.0018,-0.0933 0.37063,-0.1689 0.828521,-0.1689 z"
         id="path1798" />
      <path
         style="fill:#a116ff;fill-opacity:1;stroke:none;stroke-width:1px;stroke-linecap:round;stroke-linejoin:round;stroke-opacity:0;stop-color:#000000"
         d="m -28.620412,700.10159 h 22.48325 5e-4 c 0.0508,0 0.0916,0.073 0.0916,0.164 v 0 c 0,0.009 0,22.339 0,22.339 v 10e-4 c -2e-4,0.09 -0.0412,0.163 -0.0921,0.163 h -10e-5 c -0.0097,0 -22.48315,0 -22.48315,0 h -5.3e-4 c -0.05079,0 -0.09159,-0.073 -0.09159,-0.164 v 0 c 0,-0.009 0,-22.339 0,-22.339 v -10e-4 c 1.5e-4,-0.09 0.04118,-0.163 0.09212,-0.163 z"
         id="path1800" />
      <path
         style="fill:#aa2dff;fill-opacity:1;stroke:none;stroke-width:1px;stroke-linecap:round;stroke-linejoin:round;stroke-opacity:0;stop-color:#000000"
         d="m -6.045062,700.10159 h 22.4832 5e-4 c 0.0508,0 0.0916,0.073 0.0916,0.164 v 0 c 0,0.019 0,22.339 0,22.339 v 10e-4 c -10e-5,0.09 -0.0411,0.163 -0.0921,0.163 v 0 c -0.0195,0 -22.4832,0 -22.4832,0 h -5e-4 c -0.0508,0 -0.0916,-0.073 -0.0916,-0.164 v 0 c 0,-0.019 0,-22.339 0,-22.339 v -10e-4 c 10e-5,-0.09 0.0411,-0.163 0.0921,-0.163 z"
         id="path1802" />
      <path
         style="fill:#b344ff;fill-opacity:1;stroke:none;stroke-width:1px;stroke-linecap:round;stroke-linejoin:round;stroke-opacity:0;stop-color:#000000"
         d="m 16.530238,700.10159 h 22.4831 0.001 c 0.05,0 0.091,0.073 0.091,0.164 v 0 c 0,0.029 0,22.339 0,22.339 v 10e-4 c 0,0.09 -0.041,0.163 -0.092,0.163 v 0 c -0.029,0 -22.4831,0 -22.4831,0 h -4e-4 c -0.0508,0 -0.0917,-0.073 -0.0917,-0.164 v 0 c 0,-0.029 0,-22.339 0,-22.339 v -10e-4 c 10e-5,-0.09 0.0412,-0.163 0.0921,-0.163 z"
         id="path1804" />
      <path
         style="fill:#bc5aff;fill-opacity:1;stroke:none;stroke-width:1px;stroke-linecap:round;stroke-linejoin:round;stroke-opacity:0;stop-color:#000000"
         d="m 39.105338,700.10159 h 22.483 v 0 c 0.051,0 0.092,0.073 0.092,0.164 v 0 c 0,0.038 0,22.339 0,22.339 v 10e-4 c 0,0.09 -0.041,0.163 -0.092,0.163 v 0 c -0.039,0 -22.483,0 -22.483,0 h -0.001 c -0.051,0 -0.092,-0.073 -0.092,-0.164 v 0 c 0,-0.038 0,-22.339 0,-22.339 v -10e-4 c 10e-4,-0.09 0.042,-0.163 0.093,-0.163 z"
         id="path1806" />
      <path
         style="fill:#c571ff;fill-opacity:1;stroke:none;stroke-width:1px;stroke-linecap:round;stroke-linejoin:round;stroke-opacity:0;stop-color:#000000"
         d="m 61.680338,700.10159 h 22.483 0.001 c 0.051,0 0.092,0.073 0.092,0.164 v 0 c 0,0.048 0,22.339 0,22.339 v 10e-4 c -0.001,0.09 -0.042,0.163 -0.093,0.163 v 0 c -0.048,0 -22.483,0 -22.483,0 v 0 c -0.051,0 -0.092,-0.073 -0.092,-0.164 v 0 c 0,-0.048 0,-22.339 0,-22.339 v -10e-4 c 0,-0.09 0.041,-0.163 0.092,-0.163 z"
         id="path1808" />
      <path
         style="fill:#ce88ff;fill-opacity:1;stroke:none;stroke-width:1px;stroke-linecap:round;stroke-linejoin:round;stroke-opacity:0;stop-color:#000000"
         d="m 84.255338,700.10159 h 22.483002 v 0 c 0.051,0 0.092,0.073 0.092,0.164 v 0 c 0,0.058 0,22.339 0,22.339 v 10e-4 c 0,0.09 -0.041,0.163 -0.092,0.163 v 0 c -0.058,0 -22.483002,0 -22.483002,0 v 0 c -0.051,0 -0.092,-0.073 -0.092,-0.164 v 0 c 0,-0.058 0,-22.339 0,-22.339 v -10e-4 c 0,-0.09 0.041,-0.163 0.092,-0.163 z"
         id="path1810" />
      <path
         style="fill:#d79eff;fill-opacity:1;stroke:none;stroke-width:1px;stroke-linecap:round;stroke-linejoin:round;stroke-opacity:0;stop-color:#000000"
         d="m 106.83034,700.10159 h 22.484 v 0 c 0.051,0 0.092,0.073 0.092,0.164 v 0 c 0,0.067 0,22.339 0,22.339 v 10e-4 c 0,0.09 -0.041,0.163 -0.092,0.163 h -10e-4 c -0.068,0 -22.483,0 -22.483,0 v 0 c -0.051,0 -0.092,-0.073 -0.092,-0.164 v 0 c 0,-0.067 0,-22.339 0,-22.339 v -10e-4 c 0,-0.09 0.041,-0.163 0.092,-0.163 z"
         id="path1812" />
      <path
         style="fill:#e0b5ff;fill-opacity:1;stroke:none;stroke-width:1px;stroke-linecap:round;stroke-linejoin:round;stroke-opacity:0;stop-color:#000000"
         d="m 129.31434,700.10159 h 22.483 v 0 c 0.051,0 0.092,0.073 0.092,0.164 v 0 c 0,0.077 0,22.339 0,22.339 v 10e-4 c 0,0.09 -0.041,0.163 -0.092,0.163 v 0 c -0.078,0 -22.483,0 -22.483,0 v 0 c -0.051,0 -0.092,-0.073 -0.092,-0.164 v 0 c 0,-0.077 0,-22.339 0,-22.339 v -10e-4 c 0,-0.09 0.041,-0.163 0.092,-0.163 z"
         id="path1814" />
      <path
         style="fill:#eaccff;fill-opacity:1;stroke:none;stroke-width:1px;stroke-linecap:round;stroke-linejoin:round;stroke-opacity:0;stop-color:#000000"
         d="m 151.88934,700.10159 h 22.483 v 0 c 0.051,0 0.092,0.073 0.092,0.164 v 0 c 0,0.087 0,22.339 0,22.339 v 0 c 0,0.091 -0.041,0.164 -0.092,0.164 v 0 c -0.088,0 -22.483,0 -22.483,0 v 0 c -0.051,0 -0.092,-0.073 -0.092,-0.164 v 0 c 0,-0.087 0,-22.339 0,-22.339 v 0 c 0,-0.091 0.041,-0.164 0.092,-0.164 z"
         id="path1816" />
    </g>
    <g
       id="g3222"
       transform="translate(0,-138.46026)"
       inkscape:export-xdpi="150"
       inkscape:export-ydpi="150">
      <path
         style="fill:#c8402e;fill-opacity:1;stroke:none;stroke-width:2.99975px;stroke-linecap:round;stroke-linejoin:round;stroke-opacity:0;stop-color:#000000"
         d="m -27.791637,1030.715 h 202.242677 0.005 c 0.4566,10e-4 0.82334,0.074 0.82334,0.1641 v 0 22.348 10e-4 c -0.001,0.09 -0.37052,0.1631 -0.82864,0.1631 v 0 h -202.242676 -0.0054 c -0.45606,-10e-4 -0.823067,-0.073 -0.823067,-0.1641 v 0 -22.348 0 c 0.0018,-0.091 0.370605,-0.1641 0.828464,-0.1641 z"
         id="path2468" />
      <path
         style="fill:#d45848;fill-opacity:1;stroke:none;stroke-width:1px;stroke-linecap:round;stroke-linejoin:round;stroke-opacity:0;stop-color:#000000"
         d="m -28.6201,1053.219 h 22.48325 5e-4 c 0.0508,10e-4 0.0916,0.074 0.0916,0.164 v 0 c 0,0.01 0,22.34 0,22.34 v 10e-4 c -2e-4,0.09 -0.0412,0.163 -0.0921,0.163 h -10e-5 c -0.0097,0 -22.48315,0 -22.48315,0 h -5.3e-4 c -0.05079,-10e-4 -0.09159,-0.073 -0.09159,-0.164 v 0 c 0,-0.01 0,-22.34 0,-22.34 v 0 c 1.5e-4,-0.091 0.04118,-0.164 0.09212,-0.164 z"
         id="path2470" />
      <path
         style="fill:#d96b5d;fill-opacity:1;stroke:none;stroke-width:1px;stroke-linecap:round;stroke-linejoin:round;stroke-opacity:0;stop-color:#000000"
         d="m -5.95265,1053.219 h 22.4832 5e-4 c 0.0508,10e-4 0.0916,0.074 0.0916,0.164 v 0 c 0,0.02 0,22.34 0,22.34 v 10e-4 c -10e-5,0.09 -0.0411,0.163 -0.0921,0.163 v 0 c -0.0195,0 -22.4832,0 -22.4832,0 h -5e-4 c -0.0508,0 -0.0916,-0.073 -0.0916,-0.164 v 0 c 0,-0.019 0,-22.34 0,-22.34 v 0 c 10e-5,-0.091 0.0411,-0.164 0.0921,-0.164 z"
         id="path2472" />
      <path
         style="fill:#de7e71;fill-opacity:1;stroke:none;stroke-width:1px;stroke-linecap:round;stroke-linejoin:round;stroke-opacity:0;stop-color:#000000"
         d="m 16.71475,1053.219 h 22.4831 10e-4 c 0.05,10e-4 0.091,0.074 0.091,0.164 v 0 c 0,0.029 0,22.34 0,22.34 v 10e-4 c 0,0.09 -0.041,0.163 -0.092,0.163 v 0 c -0.029,0 -22.4831,0 -22.4831,0 h -4e-4 c -0.0508,0 -0.0917,-0.073 -0.0917,-0.164 v 0 c 0,-0.029 0,-22.34 0,-22.34 v 0 c 10e-5,-0.091 0.0412,-0.164 0.0921,-0.164 z"
         id="path2474" />
      <path
         style="fill:#e39186;fill-opacity:1;stroke:none;stroke-width:1px;stroke-linecap:round;stroke-linejoin:round;stroke-opacity:0;stop-color:#000000"
         d="m 39.38285,1053.219 h 22.483 v 0 c 0.051,10e-4 0.092,0.074 0.092,0.164 v 0 c 0,0.039 0,22.34 0,22.34 v 0 c 0,0.091 -0.041,0.164 -0.092,0.164 v 0 c -0.039,0 -22.483,0 -22.483,0 h -10e-4 c -0.051,0 -0.092,-0.073 -0.092,-0.164 v 0 c 0,-0.039 0,-22.34 0,-22.34 v 0 c 10e-4,-0.091 0.042,-0.164 0.093,-0.164 z"
         id="path2476" />
      <path
         style="fill:#e7a39a;fill-opacity:1;stroke:none;stroke-width:1px;stroke-linecap:round;stroke-linejoin:round;stroke-opacity:0;stop-color:#000000"
         d="m 62.04985,1053.219 h 22.483 0.001 c 0.051,10e-4 0.092,0.074 0.092,0.164 v 0 c 0,0.049 0,22.34 0,22.34 v 0 c -0.001,0.091 -0.042,0.164 -0.093,0.164 v 0 c -0.048,0 -22.483,0 -22.483,0 v 0 c -0.051,0 -0.092,-0.073 -0.092,-0.164 v 0 c 0,-0.048 0,-22.34 0,-22.34 v 0 c 0,-0.091 0.041,-0.164 0.092,-0.164 z"
         id="path2478" />
      <path
         style="fill:#ecb6af;fill-opacity:1;stroke:none;stroke-width:1px;stroke-linecap:round;stroke-linejoin:round;stroke-opacity:0;stop-color:#000000"
         d="m 84.71785,1053.219 h 22.483 v 0 c 0.051,10e-4 0.092,0.074 0.092,0.164 v 0 c 0,0.058 0,22.34 0,22.34 v 0 c 0,0.091 -0.041,0.164 -0.092,0.164 v 0 c -0.058,0 -22.483,0 -22.483,0 v 0 c -0.051,0 -0.092,-0.073 -0.092,-0.164 v 0 c 0,-0.058 0,-22.34 0,-22.34 v 0 c 0,-0.091 0.041,-0.164 0.092,-0.164 z"
         id="path2480" />
      <path
         style="fill:#f1c9c3;fill-opacity:1;stroke:none;stroke-width:1px;stroke-linecap:round;stroke-linejoin:round;stroke-opacity:0;stop-color:#000000"
         d="m 107.38485,1053.219 h 22.484 v 0 c 0.051,10e-4 0.092,0.074 0.092,0.164 v 0 c 0,0.068 0,22.34 0,22.34 v 0 c 0,0.091 -0.041,0.164 -0.092,0.164 h -0.001 c -0.068,0 -22.483,0 -22.483,0 v 0 c -0.051,0 -0.092,-0.073 -0.092,-0.164 v 0 c 0,-0.068 0,-22.34 0,-22.34 v 0 c 0,-0.091 0.041,-0.164 0.092,-0.164 z"
         id="path2482" />
      <path
         style="fill:#f6dcd8;fill-opacity:1;stroke:none;stroke-width:1px;stroke-linecap:round;stroke-linejoin:round;stroke-opacity:0;stop-color:#000000"
         d="m 130.05285,1053.219 h 22.483 v 0 c 0.051,10e-4 0.092,0.074 0.092,0.164 v 0 c 0,0.078 0,22.34 0,22.34 v 0 c 0,0.091 -0.041,0.164 -0.092,0.164 v 0 c -0.078,0 -22.483,0 -22.483,0 v 0 c -0.051,0 -0.092,-0.073 -0.092,-0.164 v 0 c 0,-0.077 0,-22.34 0,-22.34 v 0 c 0,-0.09 0.041,-0.164 0.092,-0.164 z"
         id="path2484" />
      <path
         style="fill:#fbefed;fill-opacity:1;stroke:none;stroke-width:1px;stroke-linecap:round;stroke-linejoin:round;stroke-opacity:0;stop-color:#000000"
         d="m 152.71985,1053.22 h 22.483 v 0 c 0.051,0 0.092,0.073 0.092,0.164 v 0 c 0,0.086 0,22.339 0,22.339 v 0 c 0,0.091 -0.041,0.164 -0.092,0.164 v 0 c -0.088,0 -22.483,0 -22.483,0 v 0 c -0.051,0 -0.092,-0.073 -0.092,-0.164 v 0 c 0,-0.087 0,-22.34 0,-22.34 v 0 c 0,-0.09 0.041,-0.164 0.092,-0.164 z"
         id="path2486" />
    </g>
    <g
       id="g3210"
       transform="translate(0,-125.59776)"
       inkscape:export-xdpi="150"
       inkscape:export-ydpi="150">
      <path
         style="fill:#ff7a00;fill-opacity:1;stroke:none;stroke-width:2.97992px;stroke-linecap:round;stroke-linejoin:round;stroke-opacity:0;stop-color:#000000"
         d="m -27.794315,972.84247 h 201.588505 0.005 c 0.45512,0 0.82067,0.0723 0.82067,0.16143 v 0 22.12515 9.9e-4 c -10e-4,0.0891 -0.36932,0.16143 -0.82596,0.16143 v 0 h -201.588506 -0.0054 c -0.454585,0 -0.820404,-0.0723 -0.820404,-0.16242 v 0 -22.12515 0 c 0.0018,-0.0891 0.369406,-0.16143 0.825784,-0.16143 z"
         id="path2598" />
      <path
         style="fill:#ff8517;fill-opacity:1;stroke:none;stroke-width:1px;stroke-linecap:round;stroke-linejoin:round;stroke-opacity:0;stop-color:#000000"
         d="m -28.527982,995.18549 h 22.4832501 5e-4 c 0.0508,0 0.0916,0.073 0.0916,0.163 v 10e-4 c 0,0.01 0,22.33901 0,22.33901 v 10e-4 c -2e-4,0.09 -0.0412,0.163 -0.0921,0.163 h -10e-5 c -0.0097,0 -22.4831501,0 -22.4831501,0 h -5.3e-4 c -0.05079,0 -0.09159,-0.073 -0.09159,-0.164 v 0 c 0,-0.01 0,-22.34001 0,-22.34001 v 0 c 1.5e-4,-0.09 0.04118,-0.163 0.09212,-0.163 z"
         id="path2600" />
      <path
         style="fill:#ff912e;fill-opacity:1;stroke:none;stroke-width:1px;stroke-linecap:round;stroke-linejoin:round;stroke-opacity:0;stop-color:#000000"
         d="m -5.9526761,995.18548 h 22.4832001 5e-4 c 0.0508,0 0.0916,0.073 0.0916,0.163 v 10e-4 c 0,0.019 0,22.33902 0,22.33902 v 10e-4 c -10e-5,0.09 -0.0411,0.163 -0.0921,0.163 v 0 c -0.0195,0 -22.4832001,0 -22.4832001,0 h -5e-4 c -0.0508,0 -0.0916,-0.073 -0.0916,-0.164 v 0 c 0,-0.019 0,-22.34002 0,-22.34002 v 0 c 10e-5,-0.09 0.0411,-0.163 0.0921,-0.163 z"
         id="path2602" />
      <path
         style="fill:#ff9d45;fill-opacity:1;stroke:none;stroke-width:1px;stroke-linecap:round;stroke-linejoin:round;stroke-opacity:0;stop-color:#000000"
         d="m 16.622573,995.1855 h 22.4831 10e-4 c 0.05,0 0.091,0.073 0.091,0.163 v 0.001 c 0,0.029 0,22.339 0,22.339 v 10e-4 c 0,0.09 -0.041,0.163 -0.092,0.163 v 0 c -0.029,0 -22.4831,0 -22.4831,0 h -4e-4 c -0.0508,0 -0.0917,-0.073 -0.0917,-0.164 v 0 c 0,-0.029 0,-22.34 0,-22.34 v 0 c 10e-5,-0.09 0.0412,-0.163 0.0921,-0.163 z"
         id="path2604" />
      <path
         style="fill:#ffa95c;fill-opacity:1;stroke:none;stroke-width:1px;stroke-linecap:round;stroke-linejoin:round;stroke-opacity:0;stop-color:#000000"
         d="m 39.198524,995.1855 h 22.483 v 0 c 0.051,0 0.092,0.073 0.092,0.163 v 0.001 c 0,0.038 0,22.339 0,22.339 v 10e-4 c 0,0.09 -0.041,0.163 -0.092,0.163 v 0 c -0.039,0 -22.483,0 -22.483,0 h -10e-4 c -0.051,0 -0.092,-0.073 -0.092,-0.164 v 0 c 0,-0.038 0,-22.34 0,-22.34 v 0 c 10e-4,-0.09 0.042,-0.163 0.093,-0.163 z"
         id="path2606" />
      <path
         style="fill:#ffb573;fill-opacity:1;stroke:none;stroke-width:1px;stroke-linecap:round;stroke-linejoin:round;stroke-opacity:0;stop-color:#000000"
         d="m 61.773375,995.1855 h 22.483 10e-4 c 0.051,0 0.092,0.073 0.092,0.163 v 0.001 c 0,0.048 0,22.339 0,22.339 v 10e-4 c -10e-4,0.09 -0.042,0.163 -0.093,0.163 v 0 c -0.048,0 -22.483,0 -22.483,0 v 0 c -0.051,0 -0.092,-0.073 -0.092,-0.164 v 0 c 0,-0.048 0,-22.34 0,-22.34 v 0 c 0,-0.09 0.041,-0.163 0.092,-0.163 z"
         id="path2608" />
      <path
         style="fill:#ffc18a;fill-opacity:1;stroke:none;stroke-width:1px;stroke-linecap:round;stroke-linejoin:round;stroke-opacity:0;stop-color:#000000"
         d="m 84.349226,995.1855 h 22.483004 v 0 c 0.051,0 0.092,0.073 0.092,0.163 v 0.001 c 0,0.058 0,22.339 0,22.339 v 10e-4 c 0,0.09 -0.041,0.163 -0.092,0.163 v 0 c -0.058,0 -22.483004,0 -22.483004,0 v 0 c -0.051,0 -0.092,-0.073 -0.092,-0.164 v 0 c 0,-0.058 0,-22.34 0,-22.34 v 0 c 0,-0.09 0.041,-0.163 0.092,-0.163 z"
         id="path2610" />
      <path
         style="fill:#ffcda1;fill-opacity:1;stroke:none;stroke-width:1px;stroke-linecap:round;stroke-linejoin:round;stroke-opacity:0;stop-color:#000000"
         d="m 106.92408,995.1855 h 22.484 v 0 c 0.051,0 0.092,0.073 0.092,0.163 v 0.001 c 0,0.067 0,22.339 0,22.339 v 10e-4 c 0,0.09 -0.041,0.163 -0.092,0.163 h -0.001 c -0.068,0 -22.483,0 -22.483,0 v 0 c -0.051,0 -0.092,-0.073 -0.092,-0.164 v 0 c 0,-0.067 0,-22.34 0,-22.34 v 0 c 0,-0.09 0.041,-0.163 0.092,-0.163 z"
         id="path2612" />
      <path
         style="fill:#ffd9b8;fill-opacity:1;stroke:none;stroke-width:1px;stroke-linecap:round;stroke-linejoin:round;stroke-opacity:0;stop-color:#000000"
         d="m 129.49993,995.1855 h 22.483 v 0 c 0.051,0 0.092,0.073 0.092,0.163 v 0.001 c 0,0.077 0,22.339 0,22.339 v 0 c 0,0.091 -0.041,0.164 -0.092,0.164 v 0 c -0.078,0 -22.483,0 -22.483,0 v 0 c -0.051,0 -0.092,-0.073 -0.092,-0.164 v 0 c 0,-0.077 0,-22.34 0,-22.34 v 0 c 0,-0.09 0.041,-0.163 0.092,-0.163 z"
         id="path2614" />
      <path
         style="fill:#ffe5cf;fill-opacity:1;stroke:none;stroke-width:1px;stroke-linecap:round;stroke-linejoin:round;stroke-opacity:0;stop-color:#000000"
         d="m 152.07477,995.1855 h 22.483 v 0 c 0.051,0 0.092,0.073 0.092,0.163 v 0.001 c 0,0.087 0,22.339 0,22.339 v 0 c 0,0.091 -0.041,0.164 -0.092,0.164 v 0 c -0.088,0 -22.483,0 -22.483,0 v 0 c -0.051,0 -0.092,-0.073 -0.092,-0.164 v 0 c 0,-0.087 0,-22.34 0,-22.34 v 0 c 0,-0.09 0.041,-0.163 0.092,-0.163 z"
         id="path2616" />
    </g>
    <g
       id="g3198"
       transform="translate(0,-102.75088)"
       inkscape:export-xdpi="150"
       inkscape:export-ydpi="150">
      <path
         style="fill:#febb00;fill-opacity:1;stroke:none;stroke-width:3.00751px;stroke-linecap:round;stroke-linejoin:round;stroke-opacity:0;stop-color:#000000"
         d="m -27.793073,904.66059 h 201.892023 0.005 c 0.45581,0.001 0.82191,0.0735 0.82191,0.1652 v 0 22.5028 0 c -0.001,0.0917 -0.36987,0.16419 -0.82721,0.16419 v 0 h -201.892023 -0.0054 c -0.455269,0 -0.821639,-0.0735 -0.821639,-0.16419 v 0 -22.5028 -10e-4 c 0.0018,-0.0907 0.369962,-0.16419 0.827027,-0.16419 z"
         id="path2728" />
      <path
         style="fill:#ffc41b;fill-opacity:1;stroke:none;stroke-width:1px;stroke-linecap:round;stroke-linejoin:round;stroke-opacity:0;stop-color:#000000"
         d="m -28.52799,927.32859 h 22.48325 5e-4 c 0.0508,0 0.0916,0.073 0.0916,0.164 v 0 c 0,0.009 0,22.34 0,22.34 v 0 c -2e-4,0.091 -0.0412,0.163 -0.0921,0.163 h -10e-5 c -0.0097,0 -22.48315,0 -22.48315,0 h -5.3e-4 c -0.05079,0 -0.09159,-0.073 -0.09159,-0.163 v 0 c 0,-0.01 0,-22.34 0,-22.34 v -10e-4 c 1.5e-4,-0.09 0.04118,-0.163 0.09212,-0.163 z"
         id="path2730" />
      <path
         style="fill:#ffcd40;fill-opacity:1;stroke:none;stroke-width:1px;stroke-linecap:round;stroke-linejoin:round;stroke-opacity:0;stop-color:#000000"
         d="m -5.86054,927.32859 h 22.4832 5e-4 c 0.0508,0 0.0916,0.073 0.0916,0.164 v 0 c 0,0.019 0,22.34 0,22.34 v 0 c -10e-5,0.091 -0.0411,0.163 -0.0921,0.163 v 0 c -0.0195,0 -22.4832,0 -22.4832,0 h -5e-4 c -0.0508,0 -0.0916,-0.073 -0.0916,-0.163 v 0 c 0,-0.02 0,-22.34 0,-22.34 v -10e-4 c 10e-5,-0.09 0.0411,-0.163 0.0921,-0.163 z"
         id="path2732" />
      <path
         style="fill:#ffd354;fill-opacity:1;stroke:none;stroke-width:1px;stroke-linecap:round;stroke-linejoin:round;stroke-opacity:0;stop-color:#000000"
         d="m 16.71476,927.32859 h 22.4831 0.001 c 0.05,0 0.091,0.073 0.091,0.164 v 0 c 0,0.029 0,22.34 0,22.34 v 0 c 0,0.091 -0.041,0.163 -0.092,0.163 v 0 c -0.029,0 -22.4831,0 -22.4831,0 h -4e-4 c -0.0508,0 -0.0917,-0.073 -0.0917,-0.163 v 0 c 0,-0.029 0,-22.34 0,-22.34 v -10e-4 c 10e-5,-0.09 0.0412,-0.163 0.0921,-0.163 z"
         id="path2734" />
      <path
         style="fill:#ffd868;fill-opacity:1;stroke:none;stroke-width:1px;stroke-linecap:round;stroke-linejoin:round;stroke-opacity:0;stop-color:#000000"
         d="m 39.28986,927.32859 h 22.483 v 0 c 0.051,0 0.092,0.073 0.092,0.164 v 0 c 0,0.039 0,22.34 0,22.34 v 0 c 0,0.091 -0.041,0.163 -0.092,0.163 v 0 c -0.039,0 -22.483,0 -22.483,0 h -10e-4 c -0.051,0 -0.092,-0.073 -0.092,-0.163 v 0 c 0,-0.039 0,-22.34 0,-22.34 v -10e-4 c 10e-4,-0.09 0.042,-0.163 0.093,-0.163 z"
         id="path2736" />
      <path
         style="fill:#ffdd7c;fill-opacity:1;stroke:none;stroke-width:1px;stroke-linecap:round;stroke-linejoin:round;stroke-opacity:0;stop-color:#000000"
         d="m 61.95686,927.32859 h 22.483 0.001 c 0.051,0 0.092,0.073 0.092,0.164 v 0 c 0,0.048 0,22.34 0,22.34 v 0 c -0.001,0.091 -0.042,0.163 -0.093,0.163 v 0 c -0.048,0 -22.483,0 -22.483,0 v 0 c -0.051,0 -0.092,-0.073 -0.092,-0.163 v 0 c 0,-0.049 0,-22.34 0,-22.34 v 0 c 0,-0.091 0.041,-0.164 0.092,-0.164 z"
         id="path2738" />
      <path
         style="fill:#ffe390;fill-opacity:1;stroke:none;stroke-width:1px;stroke-linecap:round;stroke-linejoin:round;stroke-opacity:0;stop-color:#000000"
         d="m 84.62486,927.32859 h 22.483 v 0 c 0.051,0 0.092,0.073 0.092,0.164 v 0 c 0,0.058 0,22.34 0,22.34 v 0 c 0,0.09 -0.041,0.163 -0.092,0.163 v 0 c -0.058,0 -22.483,0 -22.483,0 v 0 c -0.051,0 -0.092,-0.073 -0.092,-0.163 v 0 c 0,-0.058 0,-22.34 0,-22.34 v 0 c 0,-0.091 0.041,-0.164 0.092,-0.164 z"
         id="path2740" />
      <path
         style="fill:#ffe8a4;fill-opacity:1;stroke:none;stroke-width:1px;stroke-linecap:round;stroke-linejoin:round;stroke-opacity:0;stop-color:#000000"
         d="m 107.29186,927.32859 h 22.484 v 0 c 0.051,0 0.092,0.073 0.092,0.164 v 0 c 0,0.068 0,22.34 0,22.34 v 0 c 0,0.09 -0.041,0.163 -0.092,0.163 h -0.001 c -0.068,0 -22.483,0 -22.483,0 v 0 c -0.051,0 -0.092,-0.073 -0.092,-0.163 v -10e-4 c 0,-0.067 0,-22.339 0,-22.339 v 0 c 0,-0.091 0.041,-0.164 0.092,-0.164 z"
         id="path2742" />
      <path
         style="fill:#ffedb8;fill-opacity:1;stroke:none;stroke-width:1px;stroke-linecap:round;stroke-linejoin:round;stroke-opacity:0;stop-color:#000000"
         d="m 129.86786,927.32859 h 22.483 v 0 c 0.051,0 0.092,0.073 0.092,0.164 v 0 c 0,0.077 0,22.34 0,22.34 v 0 c 0,0.09 -0.041,0.163 -0.092,0.163 v 0 c -0.078,0 -22.483,0 -22.483,0 v 0 c -0.051,0 -0.092,-0.073 -0.092,-0.163 v -10e-4 c 0,-0.077 0,-22.339 0,-22.339 v 0 c 0,-0.091 0.041,-0.164 0.092,-0.164 z"
         id="path2744" />
      <path
         style="fill:#fff3cd;fill-opacity:1;stroke:none;stroke-width:1px;stroke-linecap:round;stroke-linejoin:round;stroke-opacity:0;stop-color:#000000"
         d="m 152.44286,927.32859 h 22.483 v 0 c 0.051,0 0.092,0.073 0.092,0.164 v 0 c 0,0.087 0,22.34 0,22.34 v 0 c 0,0.09 -0.041,0.163 -0.092,0.163 v 0 c -0.088,0 -22.483,0 -22.483,0 v 0 c -0.051,0 -0.092,-0.073 -0.092,-0.163 v -10e-4 c 0,-0.087 0,-22.339 0,-22.339 v 0 c 0,-0.091 0.041,-0.164 0.092,-0.164 z"
         id="path2746" />
    </g>
    <g
       id="g3186"
       transform="translate(0,-78.70865)"
       inkscape:export-xdpi="150"
       inkscape:export-ydpi="150">
      <path
         style="fill:#00bbec;fill-opacity:1;stroke:none;stroke-width:2.99865px;stroke-linecap:round;stroke-linejoin:round;stroke-opacity:0;stop-color:#000000"
         d="m -27.791948,835.44636 h 202.166468 0.005 c 0.45643,10e-4 0.82303,0.074 0.82303,0.164 v 0 22.34 0 c -0.001,0.091 -0.37038,0.164 -0.82833,0.164 v 0 h -202.166468 -0.0054 c -0.455888,-0.001 -0.822756,-0.074 -0.822756,-0.164 v 0 -22.34 -10e-4 c 0.0018,-0.09 0.370465,-0.163 0.828152,-0.163 z"
         id="path2858" />
      <path
         style="fill:#19cfff;fill-opacity:1;stroke:none;stroke-width:1px;stroke-linecap:round;stroke-linejoin:round;stroke-opacity:0;stop-color:#000000"
         d="m -28.6201,857.95036 h 22.48325 5e-4 c 0.0508,10e-4 0.0916,0.074 0.0916,0.164 v 0 c 0,0.01 0,22.34 0,22.34 v 0 c -2e-4,0.091 -0.0412,0.164 -0.0921,0.164 h -10e-5 c -0.0097,0 -22.48315,0 -22.48315,0 h -5.3e-4 c -0.05079,-0.001 -0.09159,-0.074 -0.09159,-0.164 v 0 c 0,-0.01 0,-22.34 0,-22.34 v 0 c 1.5e-4,-0.091 0.04118,-0.164 0.09212,-0.164 z"
         id="path2860" />
      <path
         style="fill:#33d4ff;fill-opacity:1;stroke:none;stroke-width:1px;stroke-linecap:round;stroke-linejoin:round;stroke-opacity:0;stop-color:#000000"
         d="m -5.95265,857.95036 h 22.4832 5e-4 c 0.0508,10e-4 0.0916,0.074 0.0916,0.164 v 0 c 0,0.019 0,22.34 0,22.34 v 0 c -10e-5,0.091 -0.0411,0.164 -0.0921,0.164 v 0 c -0.0195,0 -22.4832,0 -22.4832,0 h -5e-4 c -0.0508,-0.001 -0.0916,-0.074 -0.0916,-0.164 v 0 c 0,-0.019 0,-22.34 0,-22.34 v 0 c 10e-5,-0.091 0.0411,-0.164 0.0921,-0.164 z"
         id="path2862" />
      <path
         style="fill:#4ddaff;fill-opacity:1;stroke:none;stroke-width:1px;stroke-linecap:round;stroke-linejoin:round;stroke-opacity:0;stop-color:#000000"
         d="m 16.71475,857.95036 h 22.4831 10e-4 c 0.05,10e-4 0.091,0.073 0.091,0.164 v 0 c 0,0.029 0,22.34 0,22.34 v 0 c 0,0.091 -0.041,0.164 -0.092,0.164 v 0 c -0.029,0 -22.4831,0 -22.4831,0 h -4e-4 c -0.0508,-0.001 -0.0917,-0.074 -0.0917,-0.164 v 0 c 0,-0.029 0,-22.34 0,-22.34 v 0 c 10e-5,-0.091 0.0412,-0.164 0.0921,-0.164 z"
         id="path2864" />
      <path
         style="fill:#67dfff;fill-opacity:1;stroke:none;stroke-width:1px;stroke-linecap:round;stroke-linejoin:round;stroke-opacity:0;stop-color:#000000"
         d="m 39.38285,857.95036 h 22.483 v 0 c 0.051,10e-4 0.092,0.073 0.092,0.164 v 0 c 0,0.039 0,22.34 0,22.34 v 0 c 0,0.091 -0.041,0.164 -0.092,0.164 v 0 c -0.039,0 -22.483,0 -22.483,0 h -10e-4 c -0.051,-0.001 -0.092,-0.073 -0.092,-0.164 v 0 c 0,-0.039 0,-22.34 0,-22.34 v 0 c 10e-4,-0.091 0.042,-0.164 0.093,-0.164 z"
         id="path2866" />
      <path
         style="fill:#80e4ff;fill-opacity:1;stroke:none;stroke-width:1px;stroke-linecap:round;stroke-linejoin:round;stroke-opacity:0;stop-color:#000000"
         d="m 62.04985,857.95036 h 22.483 0.001 c 0.051,10e-4 0.092,0.073 0.092,0.164 v 0 c 0,0.048 0,22.34 0,22.34 v 0 c -0.001,0.091 -0.042,0.164 -0.093,0.164 v 0 c -0.048,0 -22.483,0 -22.483,0 v 0 c -0.051,-0.001 -0.092,-0.073 -0.092,-0.164 v 0 c 0,-0.048 0,-22.34 0,-22.34 v 0 c 0,-0.091 0.041,-0.164 0.092,-0.164 z"
         id="path2868" />
      <path
         style="fill:#9aeaff;fill-opacity:1;stroke:none;stroke-width:1px;stroke-linecap:round;stroke-linejoin:round;stroke-opacity:0;stop-color:#000000"
         d="m 84.71785,857.95036 h 22.483 v 0 c 0.051,0 0.092,0.073 0.092,0.164 v 0 c 0,0.058 0,22.34 0,22.34 v 0 c 0,0.091 -0.041,0.164 -0.092,0.164 v 0 c -0.058,0 -22.483,0 -22.483,0 v 0 c -0.051,0 -0.092,-0.073 -0.092,-0.164 v 0 c 0,-0.058 0,-22.34 0,-22.34 v 0 c 0,-0.091 0.041,-0.164 0.092,-0.164 z"
         id="path2870" />
      <path
         style="fill:#b4efff;fill-opacity:1;stroke:none;stroke-width:1px;stroke-linecap:round;stroke-linejoin:round;stroke-opacity:0;stop-color:#000000"
         d="m 107.38485,857.95036 h 22.484 v 0 c 0.051,0 0.092,0.073 0.092,0.164 v 0 c 0,0.068 0,22.34 0,22.34 v 0 c 0,0.091 -0.041,0.164 -0.092,0.164 h -0.001 c -0.068,0 -22.483,0 -22.483,0 v 0 c -0.051,0 -0.092,-0.073 -0.092,-0.164 v 0 c 0,-0.068 0,-22.34 0,-22.34 v 0 c 0,-0.091 0.041,-0.164 0.092,-0.164 z"
         id="path2872" />
      <path
         style="fill:#cef4ff;fill-opacity:1;stroke:none;stroke-width:1px;stroke-linecap:round;stroke-linejoin:round;stroke-opacity:0;stop-color:#000000"
         d="m 130.05285,857.95036 h 22.483 v 0 c 0.051,0 0.092,0.073 0.092,0.164 v 0 c 0,0.078 0,22.34 0,22.34 v 0 c 0,0.091 -0.041,0.164 -0.092,0.164 v 0 c -0.078,0 -22.483,0 -22.483,0 v 0 c -0.051,0 -0.092,-0.073 -0.092,-0.164 v 0 c 0,-0.078 0,-22.34 0,-22.34 v 0 c 0,-0.091 0.041,-0.164 0.092,-0.164 z"
         id="path2874" />
      <path
         style="fill:#e8faff;fill-opacity:1;stroke:none;stroke-width:1px;stroke-linecap:round;stroke-linejoin:round;stroke-opacity:0;stop-color:#000000"
         d="m 152.71985,857.95036 h 22.483 v 0 c 0.051,0 0.092,0.073 0.092,0.164 v 0 c 0,0.087 0,22.34 0,22.34 v 0 c 0,0.091 -0.041,0.164 -0.092,0.164 v 0 c -0.088,0 -22.483,0 -22.483,0 v 0 c -0.051,0 -0.092,-0.073 -0.092,-0.164 v 0 c 0,-0.087 0,-22.34 0,-22.34 v 0 c 0,-0.091 0.041,-0.164 0.092,-0.164 z"
         id="path2876" />
    </g>
    <g
       id="g3174"
       transform="translate(0,-51.62387)"
       inkscape:export-xdpi="150"
       inkscape:export-ydpi="150">
      <path
         style="fill:#00c15e;fill-opacity:1;stroke:none;stroke-width:2.97625px;stroke-linecap:round;stroke-linejoin:round;stroke-opacity:0;stop-color:#000000"
         d="M -27.701405,763.04571 H 174.06841 v 0 h 0.005 c 0.45556,0 0.82137,0.0721 0.82137,0.16089 v 0 0 9.9e-4 c 0,0.17076 0,22.04999 0,22.04999 v 0 9.9e-4 c -0.001,0.0889 -0.36965,0.16089 -0.82673,0.16089 v 0 0 H -27.701405 v 0 h -0.0054 c -0.455052,-9.9e-4 -0.821176,-0.0721 -0.821176,-0.16188 v 0 0 -22.05098 0 -9.8e-4 c 0.0045,-0.0898 0.371473,-0.15991 0.826526,-0.15991 z"
         id="path3013" />
      <path
         style="fill:#16d272;fill-opacity:1;stroke:none;stroke-width:1px;stroke-linecap:round;stroke-linejoin:round;stroke-opacity:0;stop-color:#000000"
         d="m -28.52799,785.56658 h 22.48323 v 0 h 6e-4 c 0.0451,0 0.0814,0.065 0.0815,0.145 0.0055,0 0.01,0.008 0.01,0.018 v 0 10e-4 c 0,0.164 0,22.339 0,22.339 v 0 10e-4 c -2e-4,0.08 -0.0366,0.145 -0.0819,0.145 -10e-5,0.01 -0.0046,0.018 -0.0102,0.018 v 0 h -19.9852 c -0.0194,0 -2.49803,0 -2.49803,0 h -5.4e-4 c -0.04509,-10e-4 -0.08137,-0.065 -0.0814,-0.146 h -1.3e-4 c -0.0056,0 -0.01002,-0.008 -0.01002,-0.018 v -19.858 0 c 0,-0.019 0,-2.483 0,-2.483 4.6e-4,-0.08 0.0368,-0.144 0.08186,-0.144 v 0 c 0,-0.01 0.0046,-0.018 0.01023,-0.018"
         id="path3015" />
      <path
         style="fill:#2dd880;fill-opacity:1;stroke:none;stroke-width:1px;stroke-linecap:round;stroke-linejoin:round;stroke-opacity:0;stop-color:#000000"
         d="m -5.97306,785.69458 h 22.4832 v 0 h 6e-4 c 0.0396,0 0.0714,0.057 0.0715,0.127 0.0111,0 0.02,0.016 0.02,0.036 v 0 10e-4 c 0,0.154 0,22.339 0,22.339 v 0 10e-4 c -10e-5,0.07 -0.032,0.127 -0.0716,0.127 -2e-4,0.02 -0.0092,0.036 -0.0205,0.036 v 0 h -17.4871 c -0.0388,0 -4.9961,0 -4.9961,0 h -4e-4 c -0.0395,-10e-4 -0.0713,-0.057 -0.0713,-0.128 h -3e-4 c -0.0111,0 -0.02,-0.016 -0.02,-0.036 v -17.376 0 c 0,-0.038 0,-4.965 0,-4.965 4e-4,-0.07 0.0322,-0.126 0.0716,-0.126 v 0 c 0,-0.02 0.0091,-0.036 0.0204,-0.036"
         id="path3017" />
      <path
         style="fill:#44dd8f;fill-opacity:1;stroke:none;stroke-width:1px;stroke-linecap:round;stroke-linejoin:round;stroke-opacity:0;stop-color:#000000"
         d="m 16.66384,785.63958 h 22.483 v 0 h 0.001 c 0.034,0 0.061,0.049 0.061,0.109 0.017,0 0.03,0.024 0.03,0.054 v 0 10e-4 c 0,0.144 0,22.339 0,22.339 v 0 0.001 c 0,0.06 -0.027,0.109 -0.061,0.109 0,0.03 -0.014,0.054 -0.031,0.054 v 0 h -14.9889 c -0.0582,0 -7.4941,0 -7.4941,0 h -4e-4 c -0.0339,-0.001 -0.0611,-0.049 -0.0612,-0.109 h -4e-4 c -0.0167,-10e-4 -0.0301,-0.025 -0.0301,-0.055 v -14.893 -0.001 c 0,-0.058 0,-7.446 0,-7.447 4e-4,-0.06 0.0276,-0.108 0.0614,-0.108 v 0 c 0,-0.03 0.0137,-0.054 0.0307,-0.054"
         id="path3019" />
      <path
         style="fill:#5ae39d;fill-opacity:1;stroke:none;stroke-width:1px;stroke-linecap:round;stroke-linejoin:round;stroke-opacity:0;stop-color:#000000"
         d="m 39.29084,785.56658 h 22.483 v 0 0 c 0.029,0 0.052,0.041 0.052,0.091 0.022,0 0.04,0.032 0.04,0.072 v 0 10e-4 c 0,0.134 0,22.339 0,22.339 v 0 10e-4 c 0,0.05 -0.023,0.091 -0.051,0.091 -10e-4,0.04 -0.019,0.072 -0.041,0.072 v 0 h -12.491 c -0.078,0 -9.992,0 -9.992,0 h -0.001 c -0.028,-10e-4 -0.051,-0.041 -0.051,-0.091 v 0 c -0.023,-10e-4 -0.04,-0.033 -0.04,-0.073 v -12.411 0 c 0,-0.078 0,-9.929 0,-9.93 0,-0.05 0.023,-0.09 0.051,-0.09 v 0 c 0,-0.04 0.018,-0.072 0.041,-0.072"
         id="path3021" />
      <path
         style="fill:#71e8ab;fill-opacity:1;stroke:none;stroke-width:1px;stroke-linecap:round;stroke-linejoin:round;stroke-opacity:0;stop-color:#000000"
         d="m 61.90684,785.47558 h 22.483 v 0 h 10e-4 c 0.023,0 0.041,0.032 0.041,0.072 0.028,10e-4 0.05,0.042 0.05,0.091 v 10e-4 0 c 0,0.125 0,22.339 0,22.339 v 0 0.001 c 0,0.04 -0.018,0.073 -0.04,0.073 -0.001,0.05 -0.023,0.09 -0.052,0.09 v 0 h -9.993 c -0.097,0 -12.49,0 -12.49,0 v 0 c -0.023,0 -0.041,-0.032 -0.041,-0.073 h -10e-4 c -0.027,-10e-4 -0.05,-0.041 -0.05,-0.091 v -9.929 0 c 0,-0.097 0,-12.411 0,-12.411 0.001,-0.041 0.019,-0.072 0.041,-0.072 v 0 c 0,-0.05 0.023,-0.091 0.051,-0.091"
         id="path3023" />
      <path
         style="fill:#88eeba;fill-opacity:1;stroke:none;stroke-width:1px;stroke-linecap:round;stroke-linejoin:round;stroke-opacity:0;stop-color:#000000"
         d="m 84.51284,785.36658 h 22.483 v 0 h 0.001 c 0.017,0 0.031,0.024 0.031,0.054 0.033,10e-4 0.06,0.05 0.06,0.109 v 10e-4 0 c 0,0.115 0,22.339 0,22.339 v 0 10e-4 c 0,0.03 -0.014,0.055 -0.031,0.055 0,0.06 -0.027,0.108 -0.061,0.108 v 0 h -7.495 c -0.116,0 -14.988,0 -14.988,0 v 0 c -0.017,0 -0.031,-0.024 -0.031,-0.055 h -0.001 c -0.033,-10e-4 -0.06,-0.049 -0.06,-0.109 v -7.447 0 c 0,-0.116 0,-14.893 0,-14.893 0,-0.031 0.014,-0.054 0.031,-0.054 v 0 c 0,-0.06 0.027,-0.109 0.061,-0.109"
         id="path3025" />
      <path
         style="fill:#9ef3c8;fill-opacity:1;stroke:none;stroke-width:1px;stroke-linecap:round;stroke-linejoin:round;stroke-opacity:0;stop-color:#000000"
         d="m 107.15984,785.40358 h 22.483 v 0 0 c 0.012,0 0.021,0.016 0.022,0.036 0.039,0.002 0.07,0.058 0.07,0.127 v 10e-4 0 c 0,0.105 0,22.339 0,22.339 v 0 0.001 c 0,0.02 -0.009,0.037 -0.021,0.037 0,0.07 -0.032,0.126 -0.071,0.126 v 0 h -4.997 c -0.136,0 -17.486,0 -17.486,0 v 0 c -0.012,0 -0.021,-0.016 -0.021,-0.036 h -0.001 c -0.039,-0.002 -0.07,-0.058 -0.07,-0.128 v -4.964 -10e-4 c 0,-0.135 0,-17.375 0,-17.375 0,-0.02 0.009,-0.036 0.02,-0.036 v 0 c 0,-0.07 0.032,-0.127 0.072,-0.127"
         id="path3027" />
      <path
         style="fill:#b5f9d6;fill-opacity:1;stroke:none;stroke-width:1px;stroke-linecap:round;stroke-linejoin:round;stroke-opacity:0;stop-color:#000000"
         d="m 129.74484,785.25758 h 22.483 v 0 h 0.001 c 0.006,0 0.011,0.008 0.011,0.018 0.045,0.002 0.08,0.066 0.08,0.145 v 10e-4 0 c 0,0.096 0,22.339 0,22.339 v 0 10e-4 c 0,0.01 -0.004,0.019 -0.01,0.019 0,0.08 -0.037,0.144 -0.082,0.144 v 0 h -2.498 c -0.156,0 -19.985,0 -19.985,0 v 0 c -0.006,0 -0.01,-0.008 -0.01,-0.018 h -0.001 c -0.045,-0.002 -0.081,-0.066 -0.081,-0.146 v -2.482 -0.001 c 0,-0.154 0,-19.857 0,-19.857 0,-0.01 0.005,-0.018 0.011,-0.018 v 0 c 0,-0.08 0.036,-0.145 0.081,-0.145"
         id="path3029" />
      <path
         style="fill:#ccffe4;fill-opacity:1;stroke:none;stroke-width:1px;stroke-linecap:round;stroke-linejoin:round;stroke-opacity:0;stop-color:#000000"
         d="m 152.41184,785.25758 h 22.483 v 0 h 0.001 0.001 c 0.05,0.002 0.09,0.074 0.09,0.163 v 10e-4 0 c 0,0.086 0,22.339 0,22.339 v 0 10e-4 10e-4 c -0.001,0.09 -0.041,0.162 -0.092,0.162 v 0 h -10e-4 c -0.174,0 -22.482,0 -22.482,0 v 0 h -0.001 -0.001 c -0.05,-0.002 -0.09,-0.074 -0.09,-0.164 v 0 -10e-4 c 0,-0.173 0,-22.339 0,-22.339 v 0 0 c 0,-0.09 0.041,-0.163 0.092,-0.163"
         id="path3031" />
    </g>
  </g>
</svg>
